<svg fill="none" viewBox="0 0 24 24" height="40" width="40" xmlns="http://www.w3.org/2000/svg">
    <g fill="#ff0336">
        <path
            d="m15 3.75c.4142 0 .75-.33579.75-.75s-.3358-.75-.75-.75h-3.0452c-1.8366-.00001-3.27619-.00001-4.41832.12373-1.16554.12628-2.10992.38859-2.91624.97442-.48815.35466-.91743.78394-1.27209 1.27208-.58583.80633-.84814 1.75071-.97442 2.91625-.12374 1.14213-.12374 2.58172-.12373 4.41832v.0904c-.00001 1.8366-.00001 3.2762.12373 4.4183.12628 1.1656.38859 2.1099.97442 2.9163.35466.4881.78394.9174 1.27208 1.272.80633.5859 1.75071.8482 2.91625.9745 1.14211.1237 2.58172.1237 4.41822.1237h.0906c1.8365 0 3.2761 0 4.4182-.1237 1.1656-.1263 2.1099-.3886 2.9163-.9745.4881-.3546.9174-.7839 1.272-1.272.5859-.8064.8482-1.7507.9745-2.9163.1237-1.1421.1237-2.5817.1237-4.4182v-3.0453c0-.41421-.3358-.75-.75-.75s-.75.33579-.75.75v3c0 1.8916-.001 3.25-.115 4.302-.1125 1.0379-.3276 1.6881-.6967 2.1961-.2621.3608-.5794.6781-.9402.9402-.508.3691-1.1582.5842-2.1961.6967-1.052.114-2.4104.115-4.302.115s-3.25001-.001-4.30196-.115c-1.03791-.1125-1.68812-.3276-2.19613-.6967-.3608-.2621-.67809-.5794-.94023-.9402-.36909-.508-.58423-1.1582-.69668-2.1961-.11397-1.052-.115-2.4104-.115-4.302s.00103-3.25001.115-4.30195c.11245-1.03792.32759-1.68813.69668-2.19614.26214-.3608.57943-.67809.94023-.94023.50801-.36909 1.15822-.58423 2.19614-.69668 1.05194-.11397 2.41035-.115 4.30195-.115z" />
        <path
            d="m6.32665 14.5268c-.18242.3719-.02883.8213.34305 1.0037s.82123.0288 1.00365-.3431l1.46034-2.977c.45263-.9228 1.78301-.8777 2.17211.0736.8792 2.149 3.8846 2.2508 4.9072.1662l1.4604-2.97704c.1824-.37189.0288-.82124-.3431-1.00365-.3719-.18242-.8212-.02883-1.0037.34305l-1.4603 2.97704c-.4526.9228-1.783.8777-2.1721-.0736-.8792-2.14902-3.88465-2.25083-4.90722-.1662z" />
        <path clip-rule="evenodd"
            d="m17.5 4c0 1.38071 1.1193 2.5 2.5 2.5s2.5-1.11929 2.5-2.5-1.1193-2.5-2.5-2.5-2.5 1.11929-2.5 2.5zm1.5 0c0 .55228.4477 1 1 1s1-.44772 1-1-.4477-1-1-1-1 .44772-1 1z"
            fill-rule="evenodd" />
    </g>
</svg>
