<svg id="Line" viewBox="0 0 64 64" xmlns="http://www.w3.org/2000/svg" height="40" width="40" fill="#ff0336">
    <path
        d="m10.27 34.87 2.76-2.76c.98-.98 2.14-1.79 3.4-2.38l-.7 7.67-2.38 6.21c-.58 1.51-1.44 2.86-2.56 4.02l-3.17 3.28c-.94.97-1.45 2.3-1.41 3.66.04 1.29.56 2.46 1.47 3.3.88.81 2.03 1.26 3.24 1.26 1.3 0 2.55-.53 3.42-1.45l5.68-5.85c.45-.46.8-1.03 1.02-1.62l.59-1.52c.82 1.21 1.4 2.55 1.73 3.98l.91 3.94c.5 2.18 2.41 3.7 4.65 3.7.58 0 1.16-.11 1.71-.32 2.21-.84 3.46-3.29 2.9-5.71l-.72-3.14c-.7-3.05-1.96-5.9-3.72-8.48l-3.75-5.46.38-4.18c.44.4.94.72 1.5.93l4.24 1.6c.54.21 1.11.32 1.72.32 1.96 0 3.75-1.23 4.46-3.07.94-2.46-.31-5.22-2.77-6.16l-1.21-.46c-1.44-.55-2.74-1.36-3.86-2.4l-3.83-3.56c3.25-.55 5.73-3.37 5.73-6.77 0-3.79-3.08-6.88-6.88-6.88s-6.88 3.08-6.88 6.88c0 1.97.84 3.75 2.18 5.01l-4.32 1.36c-3.79 1.2-7.28 3.31-10.1 6.13l-2.29 2.29c-.95.95-1.46 2.26-1.39 3.6.06 1.34.7 2.6 1.74 3.46 1.87 1.54 4.74 1.35 6.52-.43zm8.9 14.64c-.13.35-.33.67-.58.93l-5.68 5.86c-.98 1.02-2.81 1.08-3.87.1-.51-.47-.81-1.14-.83-1.89-.02-.83.28-1.63.85-2.21l3.17-3.28c1.31-1.35 2.31-2.93 2.99-4.69l1.23-3.21s.02.05.04.07l3.77 5.49zm7.41-25.98 1.84 1.72c1.31 1.22 2.83 2.17 4.51 2.81l1.21.46c1.43.55 2.15 2.15 1.61 3.57-.41 1.07-1.46 1.79-2.59 1.79-.35 0-.68-.06-.99-.19l-4.24-1.61c-.33-.13-.64-.32-.9-.57l-1.09-1.01.63-6.98zm-6.65-10.08c0-2.69 2.19-4.88 4.88-4.88s4.88 2.19 4.88 4.88-2.19 4.88-4.88 4.88-4.88-2.19-4.88-4.88zm-15.12 16.2 2.29-2.29c2.59-2.58 5.79-4.53 9.28-5.63l4.61-1.45h.02c.12-.04.24-.07.36-.09.03 0 .06 0 .09-.01.16-.03.32-.03.47-.03.07 0 .14.01.22.02.12.02.23.03.34.06.08.02.16.04.24.07h.02c.16.06.31.14.45.22.08.04.15.1.22.15.06.04.12.08.17.13.22.18.41.39.57.64.33.5.47 1.17.41 1.87l-1.28 14.09c-.02.23.04.46.17.66l3.95 5.76c1.63 2.37 2.78 4.99 3.42 7.8l.72 3.14c.33 1.45-.38 2.9-1.67 3.39-.32.12-.66.19-1 .19-1.3 0-2.41-.88-2.7-2.15l-.91-3.94c-.39-1.71-1.1-3.31-2.09-4.75l-5.08-7.41c-.36-.53-.53-1.18-.48-1.82l.9-9.92c.03-.33-.11-.66-.37-.87-.18-.15-.4-.22-.63-.22-.1 0-.2.02-.3.05-2.12.67-4.08 1.86-5.65 3.43l-2.76 2.76c-1.06 1.06-2.75 1.2-3.83.3-.62-.51-.98-1.22-1.01-2.01-.04-.78.26-1.54.81-2.1zm47.33-13.14 2.27 7.42h6.58c.55 0 1 .45 1 1s-.45 1-1 1h-7.32c-.44 0-.83-.29-.96-.71l-1.51-4.93-3.55 12.12c-.12.42-.5.71-.93.72h-.03c-.42 0-.8-.26-.94-.66l-3.33-9.28h-4.84c-.55 0-1-.45-1-1s.45-1 1-1h5.54c.42 0 .8.27.94.66l2.53 7.05 3.62-12.37c.12-.42.51-.72.95-.72.44 0 .83.29.96.71zm-11.19 1.65c.48.38 1.06.57 1.63.57s1.15-.19 1.64-.57c3.68-2.93 5.75-5.86 6.16-8.72.23-1.56-.28-3.23-1.31-4.35-.88-.96-2.07-1.44-3.35-1.36-1.15.07-2.16.79-3.01 1.46-.07.06-.18.06-.25 0-.86-.67-1.86-1.39-3.02-1.46-1.28-.08-2.47.41-3.35 1.36-1.03 1.12-1.53 2.79-1.31 4.35.41 2.86 2.49 5.8 6.16 8.72zm-3.38-11.72c.33-.36.9-.78 1.76-.72.55.03 1.24.52 1.9 1.04.8.62 1.92.63 2.71 0 .66-.52 1.35-1.01 1.9-1.04.85-.06 1.43.36 1.76.72.63.68.94 1.74.8 2.71-.34 2.34-2.17 4.85-5.43 7.45-.23.18-.55.18-.78 0-3.26-2.6-5.09-5.1-5.43-7.45-.14-.97.17-2.03.8-2.71z" />
</svg>
