<svg width="24" height="24" viewBox="0 0 24 24" fill="none" xmlns="http://www.w3.org/2000/svg">
    <g clip-path="url(#clip0)">
        <path
            d="M11.9997 5.9999C13.6565 5.9999 14.9997 4.65677 14.9997 2.99995C14.9997 1.34312 13.6565 0 11.9997 0C10.3429 0 8.99977 1.34312 8.99977 2.99995C8.99977 4.65677 10.3429 5.9999 11.9997 5.9999Z"
            fill="white" />
        <path
            d="M17.8305 21.8297L14.136 23.2153L15.9733 23.9042C16.7639 24.1978 17.6171 23.791 17.9046 23.0261C18.0576 22.618 18.0124 22.1905 17.8305 21.8297Z"
            fill="white" />
        <path
            d="M5.02674 16.5949C4.2526 16.3078 3.38687 16.6974 3.0954 17.473C2.80464 18.2486 3.19796 19.1128 3.97351 19.4043L5.59177 20.0111L9.86409 18.4088L5.02674 16.5949Z"
            fill="white" />
        <path
            d="M20.9045 17.473C20.613 16.6974 19.7473 16.3078 18.9732 16.5949L6.97342 21.0948C6.19778 21.3863 5.8045 22.2505 6.09527 23.0262C6.38275 23.7908 7.23569 24.198 8.02661 23.9043L20.0264 19.4044C20.802 19.1129 21.1953 18.2487 20.9045 17.473Z"
            fill="white" />
        <path
            d="M22.4997 11.9998H18.9271L16.3417 6.82899C16.073 6.29213 15.5264 5.98627 14.9631 5.99991L11.9997 5.9999L9.0366 5.99991C8.4734 5.98627 7.92754 6.29217 7.65825 6.82899L5.07286 11.9998H1.50019C0.671868 11.9998 0.000244141 12.6714 0.000244141 13.4997C0.000244141 14.328 0.671868 14.9997 1.50019 14.9997H6.00009C6.56845 14.9997 7.08773 14.6789 7.34184 14.1706L8.99999 10.8543V16.483L11.9998 17.6079L14.9999 16.4827V10.8543L16.658 14.1706C16.9122 14.6789 17.4315 14.9997 17.9998 14.9997H22.4997C23.328 14.9997 23.9996 14.328 23.9996 13.4997C23.9996 12.6714 23.3281 11.9998 22.4997 11.9998Z"
            fill="white" />
    </g>
    <defs>
        <clipPath id="clip0">
            <rect width="24" height="24" fill="white" />
        </clipPath>
    </defs>
</svg>
