<svg class="img-fluid" id="outputsvg" xmlns="http://www.w3.org/2000/svg"
    style="transform: none; transform-origin: 50% 50%; cursor: move;" width="2048" height="2048"
    viewBox="0 0 20480 20480">
    <g id="l11MlreFFLqfmup2vVbM6hc" fill="rgb(0,0,0)" style="transform: none;">
        <g style="transform: none;">
            <path id="px7y6XgBa"
                d="M1819 18509 c-47 -5 -112 -15 -144 -24 -33 -8 -67 -15 -77 -15 -26 0 -284 -84 -328 -107 -14 -7 -30 -13 -36 -13 -33 0 -289 -148 -439 -253 -82 -58 -360 -338 -414 -417 -24 -36 -62 -91 -83 -122 -43 -63 -151 -269 -174 -333 -22 -60 -70 -210 -96 -300 -23 -78 -23 -89 -23 -550 l0 -470 32 -117 c17 -65 34 -122 38 -128 3 -5 12 -31 20 -57 23 -82 88 -239 127 -308 7 -11 20 -36 30 -55 21 -40 29 -54 78 -130 19 -30 37 -59 40 -65 3 -6 39 -55 80 -110 152 -202 448 -469 635 -571 11 -6 38 -21 60 -34 79 -45 131 -72 200 -101 39 -17 84 -37 102 -45 17 -8 35 -14 41 -14 28 0 122 -55 159 -92 83 -86 97 -143 67 -268 -57 -241 -56 -730 2 -988 38 -169 104 -373 150 -466 8 -16 12 -31 9 -34 -3 -3 -42 -8 -87 -12 -115 -10 -264 -47 -451 -111 -58 -20 -230 -102 -335 -159 -77 -42 -228 -153 -322 -236 -178 -157 -305 -310 -438 -529 -50 -82 -131 -269 -164 -375 -79 -255 -73 -193 -73 -715 l0 -470 29 -105 c75 -278 156 -468 289 -684 181 -294 501 -609 772 -760 17 -9 66 -37 110 -61 44 -25 87 -47 95 -51 8 -3 33 -14 55 -24 22 -10 67 -29 100 -41 104 -38 160 -68 197 -107 75 -77 94 -157 63 -258 -41 -132 -57 -551 -31 -795 17 -156 61 -354 107 -474 10 -28 19 -55 19 -61 0 -28 143 -322 206 -422 170 -273 433 -540 714 -724 217 -142 499 -259 765 -317 177 -39 314 -52 564 -51 146 1 255 -3 280 -10 63 -17 140 -99 169 -180 12 -36 22 -75 22 -87 0 -13 9 -51 20 -85 11 -35 30 -92 41 -128 90 -278 229 -529 424 -765 104 -125 189 -208 329 -320 180 -143 306 -219 551 -331 134 -61 395 -131 595 -161 173 -25 499 -25 665 0 254 39 419 86 640 183 110 48 169 77 188 92 19 16 119 52 144 52 33 0 114 -38 147 -68 16 -15 63 -70 104 -122 228 -286 518 -517 845 -673 53 -26 102 -47 107 -47 5 0 29 -8 52 -19 77 -33 189 -68 298 -93 25 -5 74 -16 110 -25 193 -44 707 -44 900 0 36 9 85 20 110 25 109 25 221 60 298 93 23 11 47 19 52 19 15 0 174 77 265 129 255 144 481 337 670 571 51 63 105 127 121 142 33 30 114 68 147 68 25 0 125 -36 144 -52 19 -15 78 -44 188 -92 221 -97 386 -144 640 -183 177 -27 501 -24 692 5 198 31 438 97 568 156 151 69 274 135 365 194 400 262 727 662 893 1092 52 137 102 302 111 367 15 105 104 220 187 243 20 6 162 12 315 13 340 4 456 19 689 89 385 116 703 304 981 582 134 135 224 244 320 392 60 91 165 292 184 350 7 20 18 48 26 62 8 15 14 34 14 42 0 8 9 33 20 55 11 22 19 46 20 54 0 8 9 44 19 80 55 188 81 396 81 642 0 171 -21 402 -45 489 -21 76 -19 133 6 183 43 87 105 132 254 186 33 12 78 31 100 41 22 10 47 21 55 24 16 7 128 68 232 128 36 21 71 44 78 53 7 8 17 15 22 15 19 0 257 201 344 291 291 302 477 639 590 1074 l29 110 0 465 c0 456 0 466 -23 545 -66 228 -111 346 -178 470 -15 28 -34 64 -43 80 -20 40 -115 179 -159 235 -135 169 -309 331 -472 441 -107 72 -112 75 -257 147 -60 30 -120 60 -135 68 -14 8 -33 14 -42 14 -8 0 -35 8 -58 19 -63 27 -170 61 -193 61 -12 0 -48 7 -80 16 -33 9 -97 20 -143 24 -45 4 -84 9 -87 12 -3 3 1 18 9 34 29 60 56 125 56 137 0 6 9 34 19 62 51 135 95 342 111 522 20 244 6 566 -34 733 -30 124 -14 186 68 270 33 35 131 90 158 90 6 0 24 6 41 14 18 8 64 28 102 45 39 16 93 42 120 57 28 15 66 36 85 46 19 10 44 24 54 31 390 247 684 570 876 961 37 78 76 161 85 186 34 96 75 224 75 238 0 7 10 46 23 85 21 70 22 82 22 542 0 524 6 464 -75 720 -45 139 -54 162 -118 286 -52 101 -84 154 -178 293 -69 101 -317 350 -422 424 -26 17 -65 45 -87 60 -22 15 -47 31 -55 35 -8 4 -35 20 -60 36 -44 29 -188 102 -262 134 -78 34 -285 97 -383 117 -33 6 -85 17 -115 23 -40 9 -379 12 -1220 12 l-1165 0 -40 -24 c-66 -40 -106 -83 -136 -146 -25 -52 -29 -71 -29 -150 0 -79 4 -97 29 -150 47 -97 102 -142 206 -170 50 -13 158 -15 727 -15 528 0 668 -3 668 -12 0 -59 -98 -619 -135 -768 -8 -30 -18 -77 -24 -105 -6 -27 -21 -84 -32 -125 -11 -41 -29 -106 -39 -145 -35 -129 -50 -180 -63 -215 -8 -19 -24 -69 -37 -110 -12 -41 -30 -95 -40 -120 -9 -25 -23 -61 -30 -80 -33 -93 -42 -117 -55 -147 -8 -17 -15 -36 -15 -42 0 -6 -10 -32 -21 -58 -12 -27 -29 -66 -39 -88 -10 -22 -28 -65 -40 -95 -57 -141 -331 -690 -364 -730 -7 -8 -16 -22 -19 -30 -4 -8 -18 -33 -31 -55 -14 -22 -42 -69 -62 -105 -21 -36 -53 -86 -71 -112 -18 -26 -33 -50 -33 -52 0 -4 -116 -177 -172 -256 -17 -25 -41 -58 -52 -75 -12 -16 -62 -84 -112 -150 -429 -566 -927 -1061 -1509 -1500 -145 -109 -156 -117 -370 -258 -190 -125 -194 -128 -249 -159 -21 -13 -46 -27 -55 -33 -9 -5 -45 -27 -81 -48 -36 -21 -72 -43 -80 -48 -8 -5 -33 -18 -55 -29 -22 -11 -76 -39 -120 -64 -44 -25 -102 -56 -130 -69 -98 -48 -291 -138 -375 -175 -19 -8 -51 -23 -71 -34 -20 -10 -43 -18 -50 -18 -8 0 -27 -7 -44 -16 -34 -18 -52 -25 -280 -108 -158 -58 -423 -143 -545 -175 -47 -12 -116 -31 -155 -41 -138 -38 -376 -90 -550 -120 -66 -11 -158 -27 -205 -36 -47 -8 -134 -19 -195 -24 -60 -6 -134 -15 -163 -20 -233 -42 -1271 -42 -1504 0 -29 5 -102 14 -163 20 -60 5 -148 16 -195 25 -47 8 -141 24 -210 36 -69 11 -161 29 -205 39 -44 10 -125 28 -180 40 -55 12 -122 29 -150 37 -27 9 -75 21 -105 28 -30 7 -86 22 -125 34 -38 12 -92 28 -120 36 -27 7 -70 20 -95 29 -25 9 -79 27 -120 41 -41 14 -106 37 -145 51 -38 14 -88 32 -110 39 -37 12 -64 23 -150 60 -16 8 -58 25 -92 39 -157 65 -197 83 -343 153 -167 80 -163 79 -248 125 -31 17 -93 50 -137 73 -44 23 -102 56 -130 73 -27 17 -86 52 -130 78 -117 69 -381 244 -530 353 -115 84 -427 329 -480 378 -11 10 -85 77 -165 149 -388 350 -811 821 -1066 1189 -11 17 -35 50 -52 75 -45 63 -166 243 -172 255 -3 6 -21 35 -41 65 -51 78 -72 112 -85 135 -6 11 -21 36 -32 55 -12 19 -28 46 -35 60 -6 14 -20 36 -29 50 -54 82 -295 565 -363 730 -30 73 -48 115 -70 163 -8 17 -19 46 -25 62 -8 28 -22 66 -86 233 -14 37 -29 81 -33 97 -5 17 -24 77 -43 135 -105 317 -193 676 -257 1055 -23 136 -51 324 -51 342 0 10 1264 13 6218 15 5910 3 6219 4 6262 21 62 24 133 87 164 147 24 45 26 60 26 166 0 107 -2 119 -27 162 -35 62 -68 97 -123 130 l-45 27 -6645 1 c-3655 1 -6684 -2 -6731 -7z m249 -824 c54 -405 116 -716 222 -1120 53 -203 154 -524 185 -592 8 -17 15 -37 15 -45 1 -7 9 -31 20 -53 11 -22 19 -46 20 -53 0 -14 29 -89 60 -157 10 -22 27 -64 39 -92 46 -115 66 -161 103 -240 105 -227 120 -259 131 -278 6 -11 28 -54 50 -95 96 -186 137 -261 184 -339 12 -20 27 -45 32 -56 6 -11 22 -38 36 -60 13 -22 35 -57 47 -79 30 -50 34 -57 92 -146 112 -171 137 -208 175 -260 22 -30 52 -73 68 -95 165 -234 481 -617 694 -839 294 -307 705 -681 953 -866 153 -115 321 -237 337 -246 10 -6 27 -18 37 -27 10 -10 21 -17 25 -17 3 0 26 -14 49 -30 101 -71 129 -90 134 -90 2 0 26 -15 52 -33 26 -18 78 -51 115 -73 38 -21 79 -46 92 -54 42 -27 139 -82 225 -128 47 -25 108 -58 135 -73 103 -56 479 -239 491 -239 4 0 25 -8 48 -19 23 -10 66 -29 96 -41 30 -12 72 -30 92 -41 20 -10 43 -19 50 -19 7 0 26 -7 41 -15 15 -8 42 -19 60 -24 18 -6 64 -22 102 -36 39 -15 111 -41 160 -58 50 -16 113 -38 140 -47 92 -32 288 -90 405 -119 47 -12 115 -31 151 -41 36 -11 74 -20 84 -20 11 0 55 -9 100 -19 132 -32 263 -59 390 -80 66 -11 161 -27 210 -35 50 -9 142 -20 205 -26 64 -5 139 -14 167 -19 231 -44 1475 -44 1706 0 28 5 103 14 167 19 63 6 156 17 205 26 50 8 144 24 210 35 177 30 457 88 570 119 39 10 108 29 155 41 119 30 301 83 405 119 28 9 91 31 140 48 50 16 122 42 160 57 39 14 84 30 102 36 18 5 45 16 60 24 15 8 34 15 41 15 7 0 30 9 50 19 20 11 62 29 92 41 30 12 72 30 92 41 20 10 42 19 48 19 14 0 424 198 510 246 25 14 88 48 140 76 83 44 121 66 216 125 10 7 44 26 74 44 30 17 106 66 170 107 63 42 123 81 132 87 42 24 330 231 439 315 541 414 1133 1008 1516 1520 23 30 59 78 80 105 21 28 46 61 55 75 9 14 33 48 53 75 72 101 215 317 215 325 0 4 7 14 16 21 9 7 20 22 25 34 5 11 23 40 39 65 16 25 36 59 45 75 8 17 23 44 34 60 45 73 62 102 77 130 8 17 37 71 64 120 79 144 300 595 300 612 0 3 8 24 19 47 10 23 29 66 41 96 12 30 28 69 35 85 23 51 65 161 65 171 1 5 9 27 20 49 11 22 19 46 20 53 0 8 6 28 14 45 15 32 26 67 104 312 50 156 74 244 141 510 52 209 127 608 151 810 6 50 17 126 23 170 l12 80 75 -3 c84 -4 239 -39 345 -78 125 -46 139 -52 185 -77 81 -43 77 -41 226 -142 63 -43 241 -222 294 -295 69 -97 144 -234 188 -345 130 -327 131 -739 1 -1080 -10 -28 -19 -54 -19 -58 0 -14 -95 -205 -134 -267 -162 -262 -432 -509 -706 -646 -70 -35 -161 -74 -172 -74 -12 0 -55 -19 -155 -68 -96 -46 -224 -151 -290 -237 -69 -89 -127 -207 -158 -321 -21 -77 -25 -110 -25 -248 0 -122 4 -177 19 -240 64 -268 46 -592 -48 -876 -12 -36 -29 -81 -38 -100 -9 -19 -25 -55 -36 -80 -11 -25 -25 -54 -30 -65 -6 -11 -17 -33 -25 -49 -52 -102 -198 -290 -309 -397 -75 -72 -198 -169 -259 -203 -16 -9 -42 -25 -59 -36 -29 -19 -120 -65 -200 -101 -90 -41 -231 -85 -315 -98 -36 -6 -81 -16 -100 -22 -23 -8 -142 -13 -355 -14 -313 -2 -322 -3 -400 -28 -103 -32 -156 -57 -227 -104 -130 -87 -210 -169 -287 -295 -50 -82 -64 -120 -102 -268 -34 -133 -74 -262 -93 -305 -20 -44 -108 -220 -127 -252 -86 -154 -238 -329 -392 -451 -247 -196 -478 -301 -787 -359 -134 -25 -400 -25 -530 1 -198 39 -328 83 -514 177 -76 39 -161 79 -190 90 -63 25 -252 59 -326 59 -71 0 -270 -34 -335 -57 -166 -60 -324 -186 -444 -353 -90 -125 -290 -313 -416 -391 -119 -73 -169 -100 -259 -140 -215 -95 -454 -149 -666 -149 -92 0 -300 26 -368 46 -290 84 -446 160 -653 316 -110 82 -261 230 -299 291 -34 55 -153 186 -213 235 -70 56 -177 118 -252 145 -65 23 -264 57 -335 57 -74 0 -263 -34 -325 -59 -28 -10 -119 -53 -201 -95 -83 -42 -156 -76 -163 -76 -7 0 -33 -9 -59 -19 -67 -27 -172 -56 -282 -77 -132 -26 -396 -26 -535 0 -493 91 -902 371 -1169 800 -25 39 -117 221 -133 261 -30 75 -103 331 -103 362 -1 10 -9 36 -20 58 -11 22 -19 45 -20 52 0 16 -65 128 -105 182 -53 73 -187 194 -250 227 -11 6 -29 15 -40 22 -38 21 -110 50 -180 73 -66 21 -87 23 -390 24 -263 2 -330 5 -375 18 -30 9 -67 17 -82 17 -41 0 -221 57 -313 100 -185 84 -251 123 -398 234 -95 71 -225 207 -312 326 -88 120 -89 121 -158 255 -106 207 -177 503 -177 734 0 105 23 295 44 376 25 92 22 363 -4 447 -11 34 -20 69 -20 75 0 20 -81 185 -109 223 -69 94 -157 178 -256 245 -43 29 -204 105 -223 105 -15 0 -193 81 -247 113 -430 253 -720 635 -835 1097 -36 146 -45 222 -45 380 1 211 25 343 101 545 25 67 92 197 129 253 14 20 36 53 49 73 28 42 144 168 208 227 52 48 183 144 243 178 72 40 125 67 155 79 185 70 298 102 405 115 130 15 116 30 143 -165z m0 -6190 c12 -88 27 -189 33 -225 5 -36 17 -108 25 -160 14 -92 21 -131 65 -330 35 -157 59 -261 80 -337 42 -158 62 -230 79 -283 9 -30 27 -89 40 -130 12 -41 31 -98 41 -125 11 -28 19 -56 19 -62 0 -7 9 -32 19 -55 10 -24 28 -69 40 -101 52 -146 85 -230 116 -302 8 -16 25 -59 40 -95 15 -36 35 -83 45 -105 11 -22 46 -98 80 -170 60 -129 82 -172 167 -335 40 -75 164 -295 217 -383 11 -18 24 -41 30 -52 12 -21 74 -118 157 -243 27 -41 49 -76 49 -78 0 -3 17 -27 38 -54 20 -27 64 -88 97 -135 63 -91 374 -483 471 -595 238 -273 581 -617 669 -671 37 -22 50 -24 170 -24 130 0 131 0 181 32 104 67 149 157 148 293 -1 139 -15 161 -261 407 -392 392 -696 759 -980 1183 -87 130 -181 279 -196 310 -4 8 -21 35 -37 60 -16 25 -36 59 -44 75 -8 17 -33 62 -55 100 -22 39 -90 171 -151 295 -105 212 -123 249 -169 353 -35 79 -123 298 -159 400 -12 31 -30 81 -42 110 -11 29 -20 57 -20 62 0 5 -8 32 -19 60 -18 48 -35 101 -79 250 -19 65 -31 110 -81 298 -11 39 -29 117 -40 172 -12 55 -28 128 -37 163 -8 34 -19 97 -24 139 -6 43 -13 87 -16 98 -6 17 -5 18 10 6 65 -54 368 -190 531 -239 130 -39 196 -54 359 -78 143 -22 189 -25 407 -23 242 3 246 2 285 -21 87 -52 144 -132 159 -228 13 -77 76 -287 112 -370 31 -75 42 -99 78 -172 20 -41 47 -93 60 -115 13 -22 27 -47 32 -55 13 -27 108 -163 166 -240 85 -111 256 -281 389 -387 65 -51 120 -93 122 -93 3 0 26 -15 52 -32 49 -34 160 -99 204 -120 98 -46 175 -80 212 -93 180 -65 297 -97 488 -132 77 -15 149 -18 385 -18 273 1 298 2 425 27 195 39 268 57 301 73 15 8 36 15 46 15 10 1 36 9 58 20 22 11 46 19 53 20 8 0 92 38 187 86 96 47 189 88 209 91 43 7 113 -16 162 -54 20 -15 69 -70 108 -123 154 -206 375 -401 651 -576 42 -26 253 -132 295 -149 333 -127 584 -175 920 -175 285 0 563 44 765 121 28 10 56 19 62 19 20 0 328 145 383 181 207 133 323 223 454 353 103 102 206 220 206 236 0 5 29 38 63 73 71 72 141 104 204 94 19 -3 112 -44 208 -91 95 -48 179 -86 187 -86 7 0 24 -6 38 -13 14 -7 63 -25 110 -39 259 -80 379 -99 680 -105 241 -5 293 -2 497 31 189 30 505 137 648 218 11 7 36 20 55 30 86 45 205 124 320 214 226 175 459 446 588 684 118 218 194 414 238 615 23 109 51 170 99 214 79 73 74 72 393 75 333 2 474 21 727 98 166 50 466 185 531 239 15 12 16 11 10 -6 -3 -11 -10 -55 -16 -96 -5 -42 -16 -103 -24 -135 -8 -33 -24 -106 -36 -164 -12 -58 -31 -134 -41 -169 -11 -35 -19 -72 -19 -81 0 -9 -8 -43 -19 -76 -10 -32 -23 -77 -29 -99 -6 -22 -20 -70 -31 -107 -12 -38 -30 -96 -40 -130 -11 -35 -31 -94 -46 -133 -14 -38 -30 -83 -35 -100 -5 -16 -20 -59 -33 -95 -24 -62 -39 -100 -88 -222 -12 -29 -26 -66 -33 -83 -6 -16 -17 -39 -23 -50 -6 -11 -33 -72 -61 -135 -57 -127 -235 -482 -272 -540 -5 -8 -33 -57 -62 -108 -29 -51 -61 -105 -70 -120 -10 -15 -27 -43 -38 -62 -42 -72 -282 -432 -323 -483 -17 -22 -41 -55 -54 -75 -32 -46 -248 -316 -331 -412 -69 -80 -88 -102 -282 -308 -268 -287 -763 -716 -1100 -951 -78 -55 -315 -213 -339 -227 -14 -8 -39 -23 -56 -34 -16 -10 -61 -37 -100 -60 -38 -23 -83 -50 -100 -60 -16 -11 -48 -29 -70 -40 -22 -10 -76 -40 -120 -64 -121 -68 -459 -233 -575 -281 -36 -14 -78 -32 -95 -40 -29 -13 -84 -35 -182 -74 -75 -29 -156 -59 -183 -66 -14 -4 -29 -11 -35 -14 -5 -4 -50 -20 -100 -35 -49 -16 -115 -36 -145 -46 -128 -41 -330 -100 -345 -100 -6 0 -41 -8 -76 -19 -108 -31 -387 -91 -559 -120 -69 -11 -166 -27 -215 -36 -50 -8 -142 -19 -205 -25 -63 -6 -144 -15 -180 -20 -126 -19 -584 -32 -875 -26 -554 12 -1081 85 -1650 227 -171 43 -456 127 -540 160 -28 10 -56 19 -64 19 -7 0 -27 7 -44 15 -18 8 -52 21 -77 29 -25 8 -70 24 -100 36 -30 12 -73 29 -95 36 -22 8 -53 21 -70 28 -16 8 -75 33 -130 56 -168 71 -444 204 -610 295 -44 24 -96 53 -115 63 -61 33 -213 123 -275 162 -142 91 -229 113 -353 91 -160 -29 -252 -146 -252 -321 0 -145 58 -243 185 -314 17 -9 44 -25 60 -36 17 -11 46 -29 65 -40 19 -11 49 -29 65 -39 45 -27 105 -62 145 -83 19 -10 67 -36 105 -58 137 -77 494 -251 645 -314 36 -15 83 -36 105 -46 56 -25 128 -54 210 -85 39 -14 79 -30 90 -36 11 -5 40 -15 65 -23 25 -8 61 -20 80 -27 19 -7 58 -20 85 -30 57 -21 289 -92 385 -119 504 -141 925 -220 1505 -282 192 -20 258 -22 765 -22 453 1 584 4 715 18 88 9 205 21 260 26 115 11 265 33 415 61 58 10 116 19 130 19 13 0 60 9 105 19 44 11 127 29 185 41 117 24 151 32 260 61 41 12 100 26 130 33 30 7 77 21 103 30 26 9 54 16 61 16 7 0 35 8 62 19 27 10 81 28 119 40 107 32 223 71 258 85 18 8 58 23 90 34 128 47 173 64 202 77 17 7 59 26 95 40 36 15 83 36 106 46 23 10 44 19 48 19 16 0 476 226 601 295 44 25 98 54 120 65 22 11 54 29 70 40 17 10 62 37 100 60 39 23 84 50 100 60 17 11 41 26 56 34 51 29 367 244 474 322 177 130 445 342 520 411 11 10 65 58 120 107 274 245 494 467 752 763 70 80 356 438 401 501 13 18 37 52 53 75 16 23 45 65 64 92 20 28 61 88 92 135 31 47 73 111 94 143 22 32 39 59 39 62 0 2 17 30 38 62 21 32 42 65 46 73 4 8 17 31 29 52 114 189 251 447 342 643 20 44 52 112 70 150 18 39 42 93 53 120 58 144 74 182 83 197 9 18 28 68 54 143 8 22 26 72 40 110 32 87 112 323 132 390 61 208 120 437 172 665 36 156 90 467 123 710 l23 165 94 -3 c139 -4 318 -55 491 -141 93 -45 93 -45 193 -113 140 -94 296 -253 389 -396 59 -90 63 -98 96 -167 90 -186 141 -393 149 -600 12 -282 -76 -615 -231 -883 -59 -102 -87 -141 -180 -251 -148 -174 -356 -337 -546 -428 -123 -59 -179 -83 -191 -83 -5 0 -31 -9 -57 -20 -162 -70 -287 -166 -385 -299 -44 -59 -116 -198 -127 -245 -4 -17 -15 -58 -24 -91 -22 -82 -22 -347 0 -430 21 -82 44 -282 44 -385 -1 -148 -38 -369 -81 -485 -11 -28 -19 -56 -19 -64 0 -7 -6 -25 -14 -39 -8 -15 -26 -54 -41 -87 -100 -234 -300 -489 -501 -640 -68 -51 -259 -175 -271 -175 -3 0 -38 -16 -79 -35 -85 -40 -252 -97 -334 -113 -217 -44 -230 -45 -450 -39 -330 10 -452 -14 -645 -126 -113 -66 -249 -210 -309 -327 -30 -58 -76 -174 -76 -190 0 -16 -29 -124 -62 -235 -26 -84 -96 -254 -114 -275 -7 -8 -17 -28 -23 -43 -29 -75 -161 -255 -275 -375 -55 -58 -252 -219 -301 -246 -16 -9 -48 -27 -70 -41 -91 -55 -318 -154 -355 -155 -8 -1 -33 -7 -55 -16 -22 -8 -116 -26 -210 -40 -189 -29 -255 -28 -450 5 -209 36 -340 78 -500 159 -192 98 -236 117 -342 142 -169 42 -395 27 -558 -36 -168 -65 -267 -142 -410 -319 -54 -66 -130 -153 -169 -193 -74 -76 -219 -197 -271 -226 -29 -16 -57 -32 -127 -76 -18 -11 -44 -25 -58 -31 -14 -6 -43 -19 -65 -29 -22 -9 -56 -24 -75 -33 -194 -89 -513 -134 -765 -108 -124 12 -353 69 -435 107 -19 9 -53 25 -75 34 -22 10 -51 23 -65 29 -14 6 -43 22 -65 36 -22 13 -47 27 -55 31 -27 14 -144 97 -210 150 -82 65 -188 175 -270 279 -162 204 -258 281 -435 349 -107 41 -200 56 -345 56 -174 -1 -310 -33 -447 -107 -128 -68 -208 -105 -288 -133 -216 -74 -470 -117 -621 -106 -103 8 -303 41 -361 61 -24 8 -49 15 -56 15 -33 0 -288 113 -362 160 -16 11 -43 27 -60 36 -118 66 -374 308 -454 428 -9 13 -37 55 -63 93 -25 38 -53 84 -62 103 -9 19 -29 60 -45 90 -37 73 -64 140 -89 225 -32 108 -62 222 -62 237 0 14 -48 133 -76 188 -59 116 -197 262 -309 327 -193 111 -316 136 -640 126 -187 -5 -224 -4 -336 16 -174 30 -317 72 -453 135 -114 52 -120 55 -140 68 -11 7 -43 27 -70 44 -251 157 -476 403 -609 669 -156 313 -213 628 -172 955 7 63 21 142 29 175 18 66 22 343 7 405 -43 172 -93 279 -184 392 -34 42 -91 100 -126 128 -70 55 -172 120 -190 120 -6 0 -30 9 -53 19 -24 10 -68 29 -98 41 -68 27 -216 99 -250 121 -243 155 -407 309 -551 519 -51 73 -139 227 -139 242 0 5 -7 22 -15 36 -39 71 -92 247 -122 402 -25 131 -25 381 0 505 69 343 183 561 412 790 138 139 226 202 395 286 187 93 393 149 535 145 l50 -1 23 -160z">
            </path>
            <path id="pCY7gEA1F"
                d="M6230 16141 c-83 -26 -160 -91 -199 -168 -18 -35 -21 -60 -21 -154 0 -95 3 -119 22 -158 29 -61 1228 -1263 1303 -1307 47 -27 56 -29 165 -29 99 1 121 4 157 23 67 35 110 78 143 144 27 55 30 70 30 157 0 167 35 124 -681 836 -705 701 -662 666 -817 664 -42 0 -88 -4 -102 -8z">
            </path>
            <path id="p4d8GuydX"
                d="M8335 16142 c-110 -40 -184 -112 -211 -202 -24 -81 -16 -219 16 -285 19 -39 154 -180 634 -661 406 -406 628 -621 661 -640 48 -27 56 -28 170 -28 114 0 122 1 168 28 26 15 67 50 91 78 75 86 94 220 50 353 -15 46 -73 106 -643 678 -466 468 -639 635 -676 655 -42 22 -65 26 -145 28 -52 2 -104 0 -115 -4z">
            </path>
            <path id="ptRKw6RCj"
                d="M10571 16128 c-72 -30 -150 -109 -173 -176 -24 -66 -24 -200 -1 -267 15 -45 76 -109 646 -681 451 -453 642 -638 676 -655 41 -21 59 -24 161 -24 104 1 119 3 156 25 60 36 95 70 129 120 30 44 30 47 30 180 l0 135 -32 46 c-17 25 -306 319 -641 654 -444 443 -623 615 -658 634 -40 20 -66 25 -144 28 -80 3 -103 0 -149 -19z">
            </path>
            <path id="pJQ1cyDP2"
                d="M12700 16136 c-74 -28 -86 -35 -126 -78 -79 -84 -88 -107 -88 -237 0 -109 2 -119 29 -166 40 -71 1216 -1249 1293 -1296 55 -34 58 -34 172 -34 114 0 116 0 173 35 106 64 148 136 155 268 4 81 1 102 -19 155 -22 60 -47 85 -654 692 -587 587 -634 632 -688 653 -67 26 -189 30 -247 8z">
            </path>
        </g>
    </g>
    <g id="lFBuvrkMnNRo4Vccb0tUvX" fill="rgb(255,255,255)" style="transform: none;">
        <g style="transform: none;">
            <path id="pjrxrNQnN"
                d="M0 18568 c0 -1355 3 -1909 11 -1901 6 6 15 41 20 79 17 115 66 293 123 449 23 64 131 270 174 333 21 31 59 86 83 122 54 79 332 359 414 417 150 105 406 253 439 253 6 0 22 6 36 13 24 12 112 43 226 80 28 9 87 24 130 33 43 9 104 21 134 27 41 9 1720 12 6715 12 l6660 0 45 -27 c55 -33 88 -68 123 -130 24 -40 27 -58 27 -132 0 -74 -4 -94 -26 -136 -31 -60 -102 -123 -164 -147 -43 -17 -351 -18 -6255 -20 -3416 -2 -6213 -3 -6216 -3 -23 0 -16 -74 42 -415 63 -376 151 -738 257 -1055 19 -58 38 -118 43 -135 4 -16 19 -60 33 -97 64 -167 78 -205 86 -233 6 -16 16 -43 24 -60 27 -60 45 -101 71 -165 68 -165 309 -648 363 -730 9 -14 23 -36 29 -50 7 -14 23 -41 35 -60 11 -19 26 -44 32 -55 13 -23 34 -57 85 -135 20 -30 38 -59 41 -65 6 -12 127 -192 172 -255 17 -25 41 -58 52 -75 255 -368 678 -839 1066 -1189 80 -72 154 -139 165 -149 53 -49 365 -294 480 -378 149 -109 413 -284 530 -353 44 -26 103 -61 130 -78 28 -17 86 -50 130 -73 44 -23 106 -56 137 -73 85 -46 81 -45 248 -125 146 -70 186 -88 343 -153 34 -14 76 -31 92 -39 86 -37 113 -48 150 -60 22 -7 72 -25 110 -39 39 -14 104 -37 145 -51 41 -14 95 -32 120 -41 25 -9 68 -22 95 -29 28 -8 82 -24 120 -36 39 -12 95 -27 125 -34 30 -7 78 -19 105 -28 28 -8 95 -25 150 -37 55 -12 136 -30 180 -40 44 -10 136 -28 205 -39 69 -12 163 -28 210 -36 47 -9 135 -20 195 -25 61 -6 134 -15 163 -20 237 -43 1327 -43 1564 0 29 5 103 14 163 20 61 5 148 16 195 24 47 9 139 25 205 36 174 30 412 82 550 120 39 10 108 29 155 41 122 32 387 117 545 175 228 83 246 90 280 108 17 9 36 16 44 16 7 0 30 8 50 18 20 11 52 26 71 34 84 37 277 127 375 175 28 13 86 44 130 69 44 25 98 53 120 64 22 11 47 24 55 29 8 5 44 27 80 48 36 21 72 43 81 48 9 6 34 20 55 33 55 31 59 34 249 159 214 141 225 149 370 258 582 439 1080 934 1509 1500 50 66 100 134 112 150 11 17 35 50 52 75 56 79 172 252 172 256 0 2 15 26 33 52 18 26 50 76 71 112 20 36 48 83 62 105 13 22 27 47 31 55 3 8 12 22 19 30 33 40 307 589 364 730 12 30 30 73 40 95 10 22 27 61 39 88 11 26 21 52 21 58 0 6 7 25 15 42 13 30 22 54 55 147 7 19 21 55 30 80 10 25 28 79 40 120 13 41 29 91 37 110 13 35 28 86 63 215 10 39 28 104 39 145 11 41 26 98 32 125 6 28 16 75 24 105 29 117 88 441 120 655 9 61 19 121 21 135 9 53 37 51 -677 50 -569 0 -672 2 -723 15 -105 28 -160 73 -207 170 -68 141 -13 296 136 386 l40 24 1135 0 c818 0 1150 -3 1190 -12 30 -6 82 -17 115 -23 98 -20 305 -83 383 -117 74 -32 218 -105 262 -134 25 -16 52 -32 60 -36 8 -4 33 -20 55 -35 22 -15 61 -43 87 -60 105 -74 353 -323 422 -424 94 -139 126 -192 178 -293 64 -125 73 -148 117 -286 54 -169 71 -231 71 -263 0 -41 20 -134 31 -146 5 -6 9 781 9 1907 l0 1917 -10240 0 -10240 0 0 -1912z m6437 -2470 c54 -21 102 -67 682 -643 547 -544 627 -627 652 -680 71 -148 10 -317 -144 -397 -33 -17 -59 -22 -127 -22 -75 0 -91 3 -135 28 -75 43 -1273 1245 -1303 1307 -31 64 -31 191 -1 252 73 145 232 211 376 155z m2128 -11 c67 -34 1286 -1253 1309 -1309 33 -78 37 -125 20 -198 -20 -80 -74 -150 -151 -196 -43 -25 -57 -28 -138 -28 -81 0 -95 3 -140 29 -34 19 -249 227 -661 639 -660 661 -652 652 -661 769 -12 149 67 262 222 319 41 15 148 2 200 -25z m2269 1 c35 -18 208 -184 658 -633 335 -335 624 -629 641 -654 31 -45 32 -49 32 -151 0 -100 -1 -107 -30 -150 -34 -50 -70 -84 -128 -119 -34 -21 -54 -24 -126 -25 -71 0 -94 4 -132 23 -34 17 -218 195 -676 655 -570 572 -631 636 -646 681 -38 113 -13 226 69 309 96 97 225 121 338 64z m2083 10 c54 -21 101 -66 688 -653 609 -608 631 -632 654 -692 53 -139 0 -281 -135 -363 -53 -32 -63 -34 -144 -34 -81 0 -91 2 -143 34 -76 46 -1252 1224 -1292 1294 -24 43 -27 59 -27 137 0 73 3 94 22 126 31 51 99 122 130 135 107 45 162 49 247 16z">
            </path>
            <path id="pNbPftjuz"
                d="M1895 17880 c-107 -13 -220 -45 -405 -115 -30 -12 -83 -39 -155 -79 -60 -34 -191 -130 -243 -178 -64 -59 -180 -185 -208 -227 -13 -20 -35 -53 -49 -73 -92 -138 -166 -324 -207 -524 -30 -147 -33 -451 -5 -589 70 -342 168 -555 375 -812 120 -150 295 -297 487 -410 54 -32 232 -113 247 -113 19 0 180 -76 223 -105 99 -67 187 -151 256 -245 28 -38 109 -203 109 -223 0 -6 9 -41 20 -75 26 -83 28 -297 4 -387 -42 -158 -55 -439 -29 -631 30 -227 88 -401 207 -624 83 -156 283 -389 425 -496 147 -111 213 -150 398 -234 92 -43 272 -100 313 -100 15 0 52 -8 82 -17 46 -13 108 -16 370 -17 298 -2 319 -3 390 -25 72 -22 143 -50 185 -73 11 -7 29 -16 40 -22 63 -33 197 -154 250 -227 40 -54 105 -166 105 -182 1 -7 9 -30 20 -52 11 -22 19 -48 20 -58 0 -31 73 -287 103 -362 16 -40 108 -222 133 -261 178 -286 425 -511 714 -651 152 -74 288 -118 455 -149 141 -27 461 -27 595 0 110 21 215 50 282 77 26 10 52 19 59 19 7 0 80 34 163 76 195 98 247 117 383 139 108 17 118 17 228 0 183 -27 312 -82 442 -187 60 -49 179 -180 213 -235 38 -61 189 -209 299 -291 207 -156 363 -232 653 -316 32 -9 113 -23 180 -31 330 -39 621 4 914 134 90 40 140 67 259 140 126 78 326 266 416 391 93 130 201 229 324 296 98 54 177 79 310 99 110 17 120 17 228 0 134 -22 191 -42 373 -134 186 -94 316 -138 514 -177 132 -26 454 -27 590 -1 445 84 820 313 1080 662 74 98 90 125 163 273 82 164 99 209 156 432 38 148 52 186 102 268 77 126 157 208 287 295 71 47 125 72 227 104 78 25 88 25 400 27 215 2 331 6 355 14 19 7 64 17 100 23 84 13 225 57 315 98 80 36 171 82 200 101 17 11 43 27 59 36 61 34 184 131 259 203 111 107 257 295 309 397 8 16 19 38 25 49 5 11 19 40 30 65 11 25 27 61 36 80 75 166 127 440 127 669 0 105 -23 305 -44 386 -26 98 -22 299 9 409 80 289 247 472 557 610 20 9 40 16 46 16 16 0 171 71 242 111 90 50 230 151 316 228 104 92 248 264 320 381 39 62 134 253 134 267 0 4 9 30 19 58 69 181 96 345 96 575 0 193 -13 292 -57 445 -45 155 -128 325 -228 465 -53 73 -231 252 -294 295 -149 101 -145 99 -226 142 -25 14 -61 30 -80 38 -223 85 -340 113 -480 117 l-104 3 -13 -80 c-6 -44 -17 -120 -23 -170 -24 -202 -99 -601 -151 -810 -67 -266 -91 -354 -141 -510 -78 -245 -89 -280 -104 -312 -8 -17 -14 -37 -14 -45 -1 -7 -9 -31 -20 -53 -11 -22 -19 -44 -20 -49 0 -10 -42 -120 -65 -171 -7 -16 -23 -55 -35 -85 -12 -30 -31 -73 -41 -96 -11 -23 -19 -44 -19 -47 0 -17 -221 -468 -300 -612 -27 -49 -56 -103 -64 -120 -15 -28 -32 -57 -77 -130 -11 -16 -26 -43 -34 -60 -9 -16 -29 -50 -45 -75 -16 -25 -34 -54 -39 -65 -5 -12 -16 -27 -25 -34 -9 -7 -16 -17 -16 -21 0 -8 -143 -224 -215 -325 -20 -27 -44 -61 -53 -75 -9 -14 -34 -47 -55 -75 -21 -27 -57 -75 -80 -105 -383 -512 -975 -1106 -1516 -1520 -109 -84 -397 -291 -439 -315 -9 -6 -69 -45 -132 -87 -64 -41 -140 -90 -170 -107 -30 -18 -64 -37 -74 -44 -95 -59 -133 -81 -216 -125 -52 -28 -115 -62 -140 -76 -86 -48 -496 -246 -510 -246 -6 0 -28 -9 -48 -19 -20 -11 -62 -29 -92 -41 -30 -12 -72 -30 -92 -41 -20 -10 -43 -19 -50 -19 -7 0 -26 -7 -41 -15 -15 -8 -42 -19 -60 -24 -18 -6 -63 -22 -102 -36 -38 -15 -110 -41 -160 -57 -49 -17 -112 -39 -140 -48 -104 -36 -286 -89 -405 -119 -47 -12 -116 -31 -155 -41 -113 -31 -393 -89 -570 -119 -66 -11 -160 -27 -210 -35 -49 -9 -142 -20 -205 -26 -64 -5 -139 -14 -167 -19 -228 -44 -1418 -44 -1646 0 -28 5 -103 14 -167 19 -63 6 -155 17 -205 26 -49 8 -144 24 -210 35 -127 21 -258 48 -390 80 -45 10 -89 19 -100 19 -10 0 -48 9 -84 20 -36 10 -104 29 -151 41 -117 29 -313 87 -405 119 -27 9 -90 31 -140 47 -49 17 -121 43 -160 58 -38 14 -84 30 -102 36 -18 5 -45 16 -60 24 -15 8 -34 15 -41 15 -7 0 -30 9 -50 19 -20 11 -62 29 -92 41 -30 12 -73 31 -96 41 -23 11 -44 19 -48 19 -12 0 -388 183 -491 239 -27 15 -88 48 -135 73 -86 46 -183 101 -225 128 -13 8 -54 33 -92 54 -37 22 -89 55 -115 73 -26 18 -50 33 -52 33 -5 0 -33 19 -134 90 -23 16 -46 30 -49 30 -4 0 -15 7 -25 17 -10 9 -27 21 -37 27 -16 9 -184 131 -337 246 -248 185 -659 559 -953 866 -213 222 -529 605 -694 839 -16 22 -46 65 -68 95 -38 52 -64 91 -178 265 -55 83 -59 91 -89 141 -12 22 -34 57 -47 79 -14 22 -30 49 -36 60 -5 11 -20 36 -32 56 -47 78 -88 153 -184 339 -22 41 -44 84 -50 95 -11 19 -26 51 -131 278 -37 79 -57 125 -103 240 -12 28 -29 70 -39 92 -31 68 -60 143 -60 157 -1 7 -9 31 -20 53 -11 22 -19 46 -20 53 0 8 -7 28 -15 45 -31 68 -132 389 -185 592 -106 404 -168 714 -222 1120 l-24 170 -54 1 c-30 1 -86 -2 -125 -6z">
            </path>
            <path id="pYzzzVBNl"
                d="M20461 16082 c-5 -10 -13 -51 -16 -92 -4 -41 -16 -102 -26 -135 -10 -33 -19 -67 -19 -76 0 -15 -40 -140 -75 -239 -9 -25 -48 -108 -85 -186 -192 -391 -486 -714 -876 -961 -10 -7 -35 -21 -54 -31 -19 -10 -57 -31 -85 -46 -27 -15 -81 -41 -120 -57 -38 -17 -84 -37 -102 -45 -17 -8 -35 -14 -41 -14 -5 0 -34 -11 -65 -25 -62 -29 -121 -84 -154 -147 -28 -52 -31 -149 -7 -248 22 -92 44 -316 44 -443 0 -267 -47 -556 -121 -752 -10 -28 -19 -56 -19 -62 0 -13 -30 -85 -61 -145 -38 -74 -18 -98 84 -98 29 0 85 -9 126 -20 41 -11 84 -20 95 -20 24 0 131 -34 194 -61 23 -11 50 -19 58 -19 9 0 28 -6 42 -14 15 -8 75 -38 135 -68 145 -72 150 -75 257 -147 163 -110 337 -272 472 -441 44 -56 139 -195 159 -235 9 -16 28 -52 43 -80 94 -173 179 -434 205 -624 5 -40 14 -78 20 -84 8 -8 11 799 11 2811 0 1552 -2 2822 -5 2822 -2 0 -9 -8 -14 -18z">
            </path>
            <path id="pKAxhx1td"
                d="M0 13280 c0 -1567 4 -2810 9 -2810 9 0 31 98 31 139 0 45 77 307 118 401 28 65 97 207 114 235 133 219 260 372 438 529 94 83 245 194 322 236 46 25 241 121 273 135 140 59 428 135 514 135 99 0 120 25 82 98 -83 161 -163 456 -187 689 -24 240 -12 537 30 713 23 96 21 196 -5 245 -31 60 -97 123 -158 150 -29 14 -58 25 -63 25 -6 0 -24 6 -41 14 -18 8 -63 28 -102 45 -69 29 -121 56 -200 101 -22 13 -49 28 -60 34 -187 102 -483 369 -635 571 -41 55 -77 104 -80 110 -3 6 -21 35 -40 65 -49 76 -57 90 -78 130 -10 19 -23 44 -30 55 -39 69 -104 226 -127 308 -8 26 -17 52 -20 57 -12 19 -62 235 -69 295 -9 76 -16 105 -27 105 -5 0 -9 -1171 -9 -2810z">
            </path>
            <path id="pjHAbldTq"
                d="M1905 11685 c-166 -19 -315 -64 -475 -144 -169 -84 -257 -147 -395 -286 -229 -229 -343 -447 -412 -790 -25 -127 -25 -432 0 -565 30 -155 83 -331 122 -402 8 -14 15 -31 15 -36 0 -15 88 -169 139 -242 144 -210 308 -364 551 -519 34 -22 182 -94 250 -121 30 -12 74 -31 98 -41 23 -10 47 -19 53 -19 18 0 120 -65 190 -120 35 -28 92 -86 126 -128 91 -113 141 -220 184 -392 15 -60 11 -280 -7 -345 -24 -92 -44 -278 -44 -406 0 -218 42 -440 123 -644 126 -322 379 -626 673 -809 27 -17 59 -37 70 -44 20 -13 26 -16 140 -68 136 -63 279 -105 453 -135 110 -19 152 -21 341 -17 330 8 444 -15 635 -125 112 -65 250 -211 309 -327 28 -55 76 -174 76 -188 0 -15 30 -129 62 -237 25 -85 52 -152 89 -225 16 -30 36 -71 45 -90 9 -19 37 -65 62 -103 26 -38 54 -80 63 -93 80 -120 336 -362 454 -428 17 -9 44 -25 60 -36 74 -47 329 -160 362 -160 7 0 32 -7 56 -15 71 -24 273 -56 392 -62 188 -9 425 30 650 107 80 28 160 65 288 133 226 122 500 141 732 51 177 -68 273 -145 435 -349 82 -104 188 -214 270 -279 66 -53 183 -136 210 -150 8 -4 33 -18 55 -31 22 -14 51 -30 65 -36 14 -6 43 -19 65 -29 22 -9 56 -25 75 -34 36 -16 77 -29 235 -72 200 -54 543 -58 756 -9 121 28 211 56 269 82 19 9 53 24 75 33 22 10 51 23 65 29 14 6 40 20 58 31 70 44 98 60 127 76 52 29 197 150 271 226 39 40 115 127 169 193 143 177 242 254 410 319 156 60 340 73 498 36 105 -25 149 -43 342 -142 159 -81 289 -122 500 -159 192 -33 316 -35 510 -5 94 14 188 32 210 40 22 9 47 15 55 16 37 1 264 100 355 155 22 14 54 32 70 41 49 27 246 188 301 246 114 120 246 300 275 375 6 15 16 35 23 43 18 21 88 191 114 275 33 111 62 219 62 235 0 16 46 132 76 190 60 117 196 261 309 327 191 110 305 133 637 125 219 -5 273 0 463 40 81 17 249 75 329 113 41 19 76 35 79 35 12 0 203 124 271 175 201 151 401 406 501 640 15 33 33 72 41 87 8 14 14 32 14 39 0 8 8 36 19 64 88 235 106 667 37 930 -22 81 -22 290 0 370 9 33 20 74 24 91 11 47 83 186 127 245 98 133 223 229 385 299 26 11 52 20 57 20 32 0 268 119 371 186 161 106 368 305 465 448 174 255 256 474 307 821 14 96 5 352 -16 455 -20 98 -62 249 -84 300 -20 48 -70 151 -85 175 -137 230 -296 392 -533 542 -90 58 -267 130 -409 167 -110 29 -325 52 -335 36 -4 -6 -17 -84 -29 -173 -31 -229 -85 -547 -122 -707 -52 -228 -111 -457 -172 -665 -20 -67 -100 -303 -132 -390 -14 -38 -32 -88 -40 -110 -26 -75 -45 -125 -54 -143 -9 -15 -25 -53 -83 -197 -11 -27 -35 -81 -53 -120 -18 -38 -50 -106 -70 -150 -91 -196 -228 -454 -342 -643 -12 -21 -25 -44 -29 -52 -4 -8 -25 -41 -46 -73 -21 -32 -38 -60 -38 -62 0 -3 -17 -30 -39 -62 -21 -32 -63 -96 -94 -143 -31 -47 -72 -107 -92 -135 -19 -27 -48 -69 -64 -92 -16 -23 -40 -57 -53 -75 -45 -63 -331 -421 -401 -501 -258 -296 -478 -518 -752 -763 -55 -49 -109 -97 -120 -107 -75 -69 -343 -281 -520 -411 -107 -78 -423 -293 -474 -322 -15 -8 -39 -23 -56 -34 -16 -10 -61 -37 -100 -60 -38 -23 -83 -50 -100 -60 -16 -11 -48 -29 -70 -40 -22 -11 -76 -40 -120 -65 -125 -69 -585 -295 -601 -295 -4 0 -25 -9 -48 -19 -23 -10 -70 -31 -106 -46 -36 -14 -78 -33 -95 -40 -29 -13 -74 -30 -202 -77 -32 -11 -72 -26 -90 -34 -35 -14 -151 -53 -258 -85 -38 -12 -92 -30 -119 -40 -27 -11 -55 -19 -62 -19 -7 0 -35 -7 -61 -16 -26 -9 -73 -23 -103 -30 -30 -7 -89 -21 -130 -33 -109 -29 -143 -37 -260 -61 -58 -12 -141 -30 -185 -41 -45 -10 -92 -19 -105 -19 -14 0 -72 -9 -130 -19 -150 -28 -300 -50 -415 -61 -55 -5 -172 -17 -260 -26 -129 -14 -261 -17 -685 -18 -475 0 -545 2 -735 22 -579 62 -1000 141 -1505 282 -96 27 -328 98 -385 119 -27 10 -66 23 -85 30 -19 7 -55 19 -80 27 -25 8 -54 18 -65 23 -11 6 -51 22 -90 36 -82 31 -154 60 -210 85 -22 10 -69 31 -105 46 -151 63 -508 237 -645 314 -38 22 -86 48 -105 58 -40 21 -100 56 -145 83 -16 10 -46 28 -65 39 -19 11 -48 29 -65 40 -16 11 -43 27 -60 36 -97 54 -157 129 -176 222 -44 210 134 390 345 351 52 -9 105 -34 191 -89 62 -39 214 -129 275 -162 19 -10 71 -39 115 -63 166 -91 442 -224 610 -295 55 -23 114 -48 130 -56 17 -7 48 -20 70 -28 22 -7 65 -24 95 -36 30 -12 75 -28 100 -36 25 -8 59 -21 77 -29 17 -8 37 -15 44 -15 8 0 36 -9 64 -19 84 -33 369 -117 540 -160 581 -145 1100 -216 1675 -227 316 -7 782 7 910 26 36 5 117 14 180 20 63 6 155 17 205 25 360 60 352 59 615 117 52 11 124 29 159 39 35 11 70 19 76 19 15 0 217 59 345 100 30 10 96 30 145 46 50 15 95 31 100 35 6 3 21 10 35 14 27 7 108 37 183 66 98 39 153 61 182 74 17 8 59 26 95 40 116 48 454 213 575 281 44 24 98 54 120 64 22 11 54 29 70 40 17 10 62 37 100 60 39 23 84 50 100 60 17 11 42 26 56 34 24 14 261 172 339 227 337 235 832 664 1100 951 194 206 213 228 282 308 83 96 299 366 331 412 13 20 37 53 54 75 41 51 281 411 323 483 11 19 28 47 38 62 9 15 41 69 70 120 29 51 57 100 62 108 37 58 215 413 272 540 28 63 55 124 61 135 6 11 17 34 23 50 7 17 21 54 33 83 49 122 64 160 88 222 13 36 28 79 33 95 5 17 21 62 35 100 15 39 35 98 46 133 10 34 28 92 40 130 11 37 25 85 31 107 6 22 19 67 29 99 11 33 19 67 19 76 0 9 8 46 19 81 10 35 29 111 41 169 12 58 30 143 40 190 19 86 39 204 47 273 6 45 -3 46 -60 10 -144 -93 -376 -198 -552 -251 -256 -78 -395 -96 -725 -97 -319 -2 -313 -1 -395 -76 -48 -44 -76 -105 -99 -214 -44 -201 -120 -397 -238 -615 -129 -238 -362 -509 -588 -684 -115 -90 -234 -169 -320 -214 -19 -10 -44 -23 -55 -30 -76 -43 -205 -95 -350 -142 -183 -58 -230 -68 -465 -101 -119 -17 -492 -5 -630 20 -155 28 -368 86 -430 118 -14 7 -31 13 -38 13 -8 0 -93 39 -190 87 -194 95 -247 108 -338 83 -55 -16 -128 -71 -169 -130 -64 -90 -133 -169 -231 -266 -131 -130 -247 -220 -454 -353 -55 -36 -363 -181 -383 -181 -6 0 -34 -9 -62 -19 -268 -102 -651 -143 -992 -106 -209 22 -393 69 -633 160 -42 17 -253 123 -295 149 -276 175 -497 370 -651 576 -109 146 -176 186 -297 178 -54 -3 -86 -16 -239 -91 -97 -48 -182 -87 -190 -87 -7 -1 -31 -9 -53 -20 -22 -11 -48 -19 -58 -20 -10 0 -31 -7 -46 -15 -33 -16 -106 -34 -301 -73 -125 -24 -155 -26 -395 -27 -207 0 -279 4 -355 18 -191 35 -308 67 -488 132 -37 13 -114 47 -212 93 -44 21 -155 86 -204 120 -26 17 -49 32 -52 32 -2 0 -57 42 -122 93 -133 106 -304 276 -389 387 -58 77 -153 213 -166 240 -5 8 -19 33 -32 55 -13 22 -40 74 -60 115 -36 73 -47 97 -78 172 -36 83 -99 293 -112 370 -16 96 -71 176 -160 229 -40 24 -41 24 -285 21 -220 -3 -262 0 -406 22 -286 43 -471 101 -719 223 -99 49 -130 66 -192 106 -72 46 -71 46 -44 -123 20 -119 84 -423 112 -527 50 -188 62 -233 81 -298 44 -149 61 -202 79 -250 11 -28 19 -55 19 -60 0 -5 9 -33 20 -62 12 -29 30 -79 42 -110 11 -32 29 -80 40 -108 11 -27 29 -72 40 -100 11 -27 29 -72 40 -100 19 -48 35 -85 77 -177 43 -94 245 -497 282 -563 22 -38 47 -83 55 -100 8 -16 28 -50 44 -75 16 -25 33 -52 37 -60 15 -31 109 -180 196 -310 284 -424 588 -791 980 -1183 172 -172 213 -219 234 -265 61 -137 12 -289 -121 -375 -48 -31 -55 -32 -151 -32 -88 0 -105 3 -140 24 -88 54 -431 398 -669 671 -97 112 -408 504 -471 595 -33 47 -77 108 -97 135 -21 27 -38 51 -38 54 0 2 -22 37 -49 78 -83 125 -145 222 -157 243 -6 11 -19 34 -30 52 -53 88 -177 308 -217 383 -85 163 -107 206 -167 335 -34 72 -69 148 -80 170 -10 22 -30 69 -45 105 -15 36 -32 79 -40 95 -31 72 -64 156 -116 302 -12 32 -30 77 -40 101 -10 23 -19 48 -19 55 0 6 -8 34 -19 62 -10 27 -29 84 -41 125 -13 41 -31 100 -40 130 -17 53 -37 125 -79 283 -21 77 -46 183 -80 337 -11 52 -27 124 -35 160 -8 36 -17 88 -21 115 -3 28 -15 100 -25 160 -11 61 -29 182 -41 270 -12 88 -24 166 -26 173 -6 14 -20 14 -168 -3z">
            </path>
            <path id="p1Fh3PTGcx"
                d="M0 4950 l0 -4950 10240 0 10240 0 0 4950 c0 2892 -4 4950 -9 4950 -11 0 -18 -27 -26 -100 -23 -202 -139 -536 -260 -745 -118 -205 -213 -332 -359 -484 -87 -90 -325 -291 -344 -291 -5 0 -15 -7 -22 -15 -7 -9 -42 -32 -78 -53 -104 -60 -216 -121 -232 -128 -8 -3 -33 -14 -55 -24 -22 -10 -67 -29 -100 -41 -149 -54 -211 -99 -254 -186 -26 -52 -28 -160 -6 -243 8 -30 22 -117 30 -194 33 -304 9 -618 -66 -877 -10 -36 -19 -72 -19 -80 -1 -8 -9 -32 -20 -54 -11 -22 -20 -47 -20 -55 0 -8 -6 -27 -14 -42 -8 -14 -19 -42 -26 -62 -19 -58 -124 -259 -184 -350 -96 -148 -186 -257 -320 -392 -278 -278 -596 -466 -981 -582 -237 -71 -351 -86 -685 -88 -167 -1 -291 -6 -315 -13 -87 -24 -176 -137 -191 -244 -9 -65 -59 -230 -111 -367 -166 -430 -493 -830 -893 -1092 -78 -51 -131 -80 -240 -133 -153 -75 -167 -81 -305 -126 -490 -160 -1023 -152 -1505 23 -110 40 -315 133 -343 156 -27 23 -125 52 -174 52 -60 0 -135 -29 -177 -68 -16 -15 -70 -79 -121 -142 -189 -234 -415 -427 -670 -571 -91 -52 -250 -129 -265 -129 -5 0 -29 -8 -52 -19 -77 -33 -189 -68 -298 -93 -25 -5 -74 -16 -110 -25 -190 -43 -650 -43 -840 0 -36 9 -85 20 -110 25 -109 25 -221 60 -298 93 -23 11 -47 19 -52 19 -5 0 -54 21 -107 47 -327 156 -617 387 -845 673 -41 52 -88 107 -104 122 -42 39 -117 68 -177 68 -49 0 -147 -29 -174 -52 -28 -23 -233 -116 -343 -156 -478 -173 -1007 -183 -1490 -27 -153 49 -164 53 -320 130 -172 84 -267 144 -426 270 -140 112 -225 195 -329 320 -195 236 -334 487 -424 765 -11 36 -30 93 -41 128 -11 34 -20 72 -20 85 0 12 -10 51 -22 87 -29 81 -105 163 -170 181 -30 9 -116 12 -276 10 -245 -3 -385 9 -567 50 -267 58 -548 175 -765 317 -281 184 -544 451 -714 724 -63 100 -206 394 -206 422 0 6 -9 33 -19 61 -74 195 -120 475 -121 735 0 157 23 403 45 474 23 74 20 187 -6 239 -43 87 -105 132 -254 186 -33 12 -78 31 -100 41 -22 10 -47 21 -55 24 -8 4 -51 26 -95 51 -44 24 -93 52 -110 61 -184 103 -452 335 -599 519 -97 121 -148 197 -231 340 -120 208 -238 545 -259 740 -8 76 -16 105 -27 105 -5 0 -9 -2058 -9 -4950z">
            </path>
        </g>
    </g>
</svg>
