<svg class="img-fluid w-100" id="outputsvg" xmlns="http://www.w3.org/2000/svg"
    style="transform: none; transform-origin: 50% 50%; cursor: move; max-height: none;"
    viewBox="0 0 20480 20480">
    <g id="l2K1esi9ctoi3IGqdGgZpTe" fill="rgb(255,255,255)" style="transform: none;">
        <g style="transform: none;">
            <path id="p10GMCJyU1"rgb(255,255,255)
                d="M0 10240 l0 -10240 10240 0 10240 0 0 10240 0 10240 -10240 0 -10240 0 0 -10240z m16800 9880 c162 -6 333 -14 380 -20 47 -5 150 -14 230 -19 151 -11 322 -31 473 -57 49 -8 123 -19 164 -24 42 -6 99 -16 127 -24 28 -8 96 -24 151 -37 109 -24 359 -100 415 -125 19 -9 52 -25 72 -35 20 -11 42 -19 48 -19 18 0 170 -91 245 -146 160 -119 257 -254 314 -437 30 -96 30 -300 0 -407 -59 -211 -169 -401 -369 -638 -115 -137 -311 -332 -460 -458 -58 -49 -116 -99 -130 -112 -39 -36 -402 -316 -512 -395 -29 -21 -84 -60 -123 -87 -133 -93 -185 -132 -185 -140 0 -7 57 -47 84 -59 23 -10 209 -140 286 -200 47 -36 103 -79 125 -96 133 -97 484 -440 656 -640 72 -84 300 -381 334 -436 6 -9 23 -36 40 -60 16 -24 34 -51 40 -60 5 -9 23 -36 40 -60 16 -24 35 -55 42 -69 7 -14 24 -43 38 -65 14 -22 28 -47 32 -55 3 -8 12 -22 18 -30 22 -26 177 -328 245 -475 49 -107 124 -287 145 -350 7 -22 25 -71 39 -110 38 -102 70 -199 96 -290 13 -44 31 -107 40 -140 10 -33 28 -105 40 -160 13 -55 31 -132 41 -171 11 -38 19 -82 19 -97 0 -15 9 -73 19 -130 52 -270 74 -541 73 -897 0 -282 -16 -641 -32 -718 -6 -26 -14 -95 -20 -153 -5 -59 -16 -147 -25 -195 -42 -242 -58 -326 -76 -404 -38 -169 -71 -306 -84 -350 -8 -25 -24 -81 -36 -125 -20 -72 -29 -101 -69 -215 -7 -19 -18 -55 -26 -80 -7 -25 -27 -81 -44 -125 -17 -44 -35 -91 -40 -105 -4 -14 -15 -38 -24 -55 -9 -16 -16 -34 -16 -38 0 -21 -168 -373 -235 -492 -12 -22 -31 -56 -43 -76 -11 -20 -26 -47 -33 -60 -31 -56 -154 -245 -221 -339 -208 -294 -538 -618 -823 -812 -82 -55 -271 -164 -360 -207 -28 -13 -67 -32 -87 -42 -20 -11 -43 -19 -50 -19 -7 -1 -31 -9 -53 -20 -22 -11 -46 -19 -53 -20 -7 0 -34 -8 -60 -19 -62 -25 -176 -56 -292 -80 -455 -94 -924 -68 -1425 81 -114 34 -218 68 -252 84 -17 8 -36 14 -42 14 -6 0 -32 10 -58 21 -27 12 -66 29 -88 39 -123 53 -199 90 -328 158 -52 27 -70 33 -79 24 -7 -7 -15 -47 -19 -89 -18 -186 -104 -578 -179 -813 -9 -30 -27 -89 -40 -130 -12 -41 -29 -90 -36 -108 -8 -18 -18 -50 -23 -70 -6 -20 -22 -68 -36 -107 -15 -38 -33 -90 -41 -115 -8 -25 -18 -54 -24 -65 -6 -11 -16 -40 -24 -65 -8 -25 -26 -76 -41 -115 -14 -38 -30 -83 -35 -100 -5 -16 -34 -104 -65 -195 -112 -331 -152 -490 -192 -750 -36 -233 -21 -600 34 -830 8 -36 19 -84 24 -107 4 -23 16 -66 25 -95 32 -104 72 -223 84 -253 7 -16 21 -52 32 -80 20 -49 38 -91 77 -177 11 -24 22 -50 25 -58 3 -8 13 -25 21 -37 15 -20 15 -23 -5 -41 -22 -20 -457 -242 -475 -242 -5 0 -21 -9 -35 -20 -14 -11 -40 -20 -58 -20 -30 0 -35 4 -53 48 -11 26 -34 76 -51 112 -59 127 -68 147 -68 156 -1 5 -9 27 -20 49 -11 22 -19 46 -20 53 0 6 -9 29 -20 49 -11 21 -20 44 -20 53 0 8 -8 37 -19 65 -18 48 -43 130 -75 245 -21 75 -62 291 -82 430 -21 145 -29 474 -15 605 34 323 59 457 133 725 34 124 137 441 183 565 15 39 30 84 34 100 4 17 14 42 21 55 7 13 17 38 21 55 11 40 47 145 59 170 6 11 16 40 24 65 8 25 20 61 27 80 38 107 53 153 108 340 79 267 132 546 150 785 24 320 24 300 -3 332 -19 21 -28 26 -39 18 -8 -5 -35 -24 -58 -41 -184 -128 -259 -180 -349 -236 -30 -19 -68 -43 -85 -54 -16 -10 -41 -25 -55 -31 -14 -7 -41 -23 -60 -34 -202 -125 -534 -277 -822 -378 -241 -85 -553 -148 -823 -167 -49 -4 -98 -11 -107 -16 -17 -8 -18 -67 -18 -1025 0 -1121 2 -1087 -62 -1178 -62 -89 -95 -134 -131 -181 -41 -53 -128 -169 -222 -295 -33 -44 -87 -116 -120 -160 -33 -44 -87 -116 -120 -160 -33 -44 -87 -116 -120 -160 -33 -44 -87 -116 -120 -160 -33 -44 -87 -116 -120 -160 -33 -44 -87 -116 -120 -160 -33 -44 -87 -116 -120 -160 -33 -44 -87 -116 -120 -160 -33 -44 -87 -116 -120 -160 -33 -44 -87 -116 -120 -160 -33 -44 -87 -116 -120 -160 -33 -44 -87 -116 -120 -160 -33 -44 -85 -113 -116 -153 -31 -40 -61 -82 -68 -94 -8 -15 -11 -285 -11 -983 0 -678 -3 -982 -11 -1028 -25 -140 -130 -245 -270 -270 -101 -17 -6190 -15 -6279 2 -108 22 -191 91 -242 203 l-23 49 -3 1009 -3 1009 -52 68 c-29 37 -79 104 -112 148 -33 44 -87 116 -120 160 -33 44 -87 116 -120 160 -33 44 -87 116 -120 160 -33 44 -87 116 -120 160 -33 44 -87 116 -120 160 -33 44 -87 116 -120 160 -33 44 -87 116 -120 160 -33 44 -87 116 -120 160 -33 44 -87 116 -120 160 -33 44 -87 116 -120 160 -33 44 -87 116 -120 160 -33 44 -87 116 -120 160 -33 44 -87 116 -120 160 -33 44 -87 116 -120 161 -33 44 -78 104 -100 133 -22 28 -51 72 -65 97 l-25 45 -5 3743 -5 3744 -27 21 c-14 12 -52 40 -84 62 -91 62 -242 221 -315 331 -100 149 -146 252 -213 484 -9 30 -24 124 -33 208 -15 142 -15 163 0 300 17 146 31 212 69 307 53 133 73 173 133 273 93 155 271 348 455 493 111 87 295 214 360 247 14 6 43 23 65 36 94 56 437 221 518 249 29 11 21 46 -16 63 -17 8 -52 28 -77 44 -25 16 -52 33 -60 37 -8 3 -38 24 -67 45 -29 21 -55 38 -58 38 -16 0 -261 209 -341 291 -132 136 -250 301 -317 444 -16 33 -33 67 -37 76 -20 39 -60 172 -80 267 -19 89 -21 125 -18 270 6 216 30 314 125 507 59 120 75 145 155 247 115 145 276 285 443 385 98 59 286 153 305 153 5 0 29 8 52 19 52 22 156 54 258 78 107 25 370 25 500 -1 97 -19 211 -48 265 -67 17 -6 53 -18 80 -26 28 -9 59 -22 70 -29 11 -8 25 -14 32 -14 12 0 157 -65 208 -93 11 -6 49 -26 85 -45 36 -19 83 -45 105 -58 22 -13 56 -32 75 -44 76 -44 297 -193 395 -265 396 -294 1040 -888 1358 -1254 34 -39 45 -33 58 31 27 140 71 306 94 355 8 17 15 36 15 42 0 17 106 233 135 276 14 20 25 38 25 40 0 2 10 19 23 37 202 294 511 574 841 764 133 77 152 87 266 146 63 32 167 82 230 109 63 28 129 56 145 64 17 7 55 23 85 35 30 12 71 29 90 37 19 9 53 21 75 28 22 7 72 25 110 40 39 14 84 30 100 35 17 5 62 21 100 35 39 15 92 33 120 41 27 8 67 20 90 28 22 8 101 34 175 56 74 23 162 50 195 60 33 11 96 29 140 40 44 12 109 30 145 41 36 11 72 19 81 19 9 0 45 8 80 19 95 27 406 98 714 162 82 17 224 43 365 67 100 18 184 34 275 52 86 17 141 27 293 51 190 30 328 52 432 69 125 20 223 35 340 51 41 6 132 19 201 30 70 10 142 19 162 19 20 0 96 9 169 20 264 40 334 50 393 55 64 6 315 34 585 65 91 10 221 24 290 29 69 6 172 15 230 21 278 27 549 51 685 60 83 5 215 14 295 20 876 62 1684 78 2560 50z m-310 -13661 c63 -12 139 -30 168 -40 30 -10 61 -19 70 -19 10 -1 35 -9 57 -20 22 -11 46 -19 53 -20 7 0 32 -10 55 -22 23 -12 50 -25 60 -30 181 -88 321 -193 488 -366 107 -111 219 -267 257 -359 45 -108 26 -226 -58 -353 -89 -134 -110 -160 -200 -254 -176 -183 -350 -306 -550 -391 -167 -70 -241 -93 -395 -121 -140 -26 -462 -27 -590 -1 -119 24 -230 55 -283 78 -23 10 -47 19 -52 19 -28 0 -212 98 -335 178 -196 128 -430 387 -526 582 -32 65 -38 191 -11 251 10 24 22 51 26 59 7 17 42 70 100 155 49 73 211 242 301 314 39 31 108 82 155 112 81 54 263 149 283 149 5 0 23 7 40 15 45 21 121 42 272 75 115 25 151 28 315 29 149 1 208 -3 300 -20z">
            </path>
            <path id="p4cLbPzo0"
                d="M15235 19440 c-148 -4 -387 -15 -530 -24 -363 -22 -829 -55 -960 -66 -60 -6 -164 -15 -230 -20 -66 -6 -186 -17 -266 -25 -80 -8 -161 -15 -180 -15 -19 0 -44 -6 -54 -14 -19 -13 -18 -15 3 -82 23 -75 47 -155 82 -279 23 -82 45 -159 80 -277 11 -38 29 -98 40 -135 27 -96 54 -186 80 -275 24 -80 22 -108 -8 -108 -10 0 -47 -9 -83 -20 -71 -23 -170 -52 -269 -80 -36 -10 -104 -31 -151 -45 -103 -32 -123 -27 -139 38 -6 23 -20 71 -30 107 -28 95 -54 184 -80 275 -13 44 -31 109 -42 145 -10 36 -27 94 -38 130 -10 36 -28 97 -39 135 -35 119 -57 197 -81 280 -12 44 -25 87 -30 95 -10 21 -75 24 -177 6 -49 -8 -119 -18 -158 -21 -38 -3 -131 -15 -205 -25 -74 -11 -202 -29 -285 -40 -375 -52 -794 -118 -1022 -161 -57 -10 -115 -19 -129 -19 -15 0 -65 -8 -113 -19 -47 -10 -140 -28 -206 -40 -207 -37 -597 -118 -785 -162 -47 -11 -123 -29 -170 -40 -47 -11 -118 -29 -157 -40 -40 -10 -107 -28 -148 -39 -152 -41 -231 -63 -285 -80 -30 -9 -86 -27 -125 -39 -38 -11 -117 -37 -175 -57 -58 -19 -118 -39 -135 -44 -16 -5 -68 -23 -115 -40 -47 -17 -98 -35 -115 -39 -16 -5 -46 -15 -65 -24 -33 -14 -67 -28 -192 -78 -143 -57 -436 -197 -543 -259 -27 -16 -57 -32 -65 -36 -8 -4 -26 -15 -40 -24 -14 -9 -45 -30 -70 -46 -210 -134 -432 -347 -527 -504 -158 -261 -216 -542 -192 -921 10 -157 47 -419 74 -519 8 -30 15 -66 15 -79 0 -14 9 -54 20 -90 10 -36 29 -104 41 -151 50 -199 164 -559 204 -647 8 -17 15 -36 15 -42 0 -6 10 -32 21 -58 116 -261 171 -373 219 -448 11 -16 27 -43 36 -60 29 -51 150 -207 206 -265 87 -90 217 -193 293 -231 17 -9 39 -20 50 -26 47 -25 113 -53 126 -53 8 -1 32 -9 54 -20 22 -11 49 -19 59 -20 11 0 52 -8 90 -19 72 -19 220 -36 401 -47 113 -7 545 26 660 51 39 8 83 15 98 15 16 0 72 9 125 20 53 12 140 30 192 41 138 29 266 59 342 80 36 11 73 19 80 19 8 0 44 8 79 19 35 10 100 29 144 41 315 88 476 141 483 159 3 7 -4 41 -15 75 -12 33 -31 97 -43 141 -13 44 -31 109 -42 145 -26 88 -56 192 -79 270 -10 36 -28 99 -40 140 -12 41 -29 102 -39 135 -67 231 -86 296 -120 413 -35 118 -57 195 -80 277 -13 44 -31 109 -42 145 -18 60 -29 98 -79 270 -47 163 -58 200 -79 275 -32 112 -81 281 -119 410 -10 33 -29 94 -41 137 -13 42 -21 82 -18 90 3 7 41 23 84 36 44 13 108 32 144 42 36 11 99 29 140 41 41 11 110 32 152 45 43 13 86 24 98 24 22 0 46 -31 55 -75 4 -16 15 -57 25 -90 9 -33 28 -96 40 -140 21 -75 32 -112 79 -275 50 -172 61 -210 79 -270 11 -36 29 -101 42 -145 23 -82 45 -159 80 -277 34 -117 53 -182 120 -413 48 -167 62 -216 80 -277 11 -38 29 -98 40 -135 18 -62 32 -111 80 -278 91 -314 99 -343 121 -410 10 -33 19 -68 19 -78 0 -28 26 -31 73 -8 24 12 49 21 56 21 7 0 25 7 39 15 15 8 45 21 67 29 22 8 65 24 95 36 30 12 73 29 95 36 22 8 54 21 72 29 17 8 36 15 43 15 6 0 28 9 48 19 20 11 60 28 87 39 28 11 95 39 150 62 55 23 123 51 150 62 28 11 68 28 90 38 22 10 130 57 240 105 110 48 216 94 235 102 19 9 53 24 75 34 22 9 79 36 127 58 48 23 90 41 93 41 3 0 45 18 93 41 48 22 105 49 127 59 22 10 78 36 125 58 47 23 144 68 215 102 72 34 183 87 249 118 153 74 925 460 1081 542 66 34 170 88 230 120 61 31 137 72 170 90 33 18 98 53 145 78 47 24 90 48 95 52 9 7 43 25 190 104 22 12 181 103 353 201 309 177 340 196 405 235 17 11 48 29 67 40 19 11 51 30 70 42 19 12 44 26 55 33 109 62 109 63 74 180 -45 151 -86 294 -119 410 -13 44 -31 109 -42 145 -10 36 -28 95 -38 133 -11 37 -29 97 -40 135 -10 37 -28 96 -39 132 -11 36 -23 82 -26 102 -7 37 -7 38 41 59 27 11 63 23 79 26 17 2 55 13 85 23 30 10 91 27 135 39 44 12 107 30 140 40 33 10 79 24 103 31 26 8 46 10 51 4 10 -11 42 -105 71 -209 12 -44 30 -107 40 -140 10 -33 27 -94 39 -135 37 -128 80 -275 127 -432 15 -49 28 -88 30 -88 7 0 209 136 324 219 25 17 56 39 70 49 14 9 61 43 105 76 466 348 785 632 976 869 178 220 226 342 164 416 -24 28 -173 121 -194 121 -6 0 -30 9 -53 19 -214 94 -731 191 -1243 232 -77 6 -185 15 -240 20 -135 12 -1434 19 -1770 9z">
            </path>
            <path id="p1BtY7TiII"
                d="M2375 18154 c-107 -29 -191 -58 -270 -94 -22 -10 -47 -21 -55 -24 -8 -3 -33 -17 -55 -31 -22 -13 -58 -34 -80 -46 -48 -26 -245 -222 -265 -264 -8 -16 -20 -37 -26 -45 -7 -8 -24 -48 -38 -89 -59 -168 -21 -365 103 -546 37 -55 114 -149 146 -180 118 -113 284 -237 420 -316 54 -30 311 -159 366 -183 24 -10 62 -27 85 -37 23 -11 47 -19 55 -19 8 0 26 -6 40 -14 14 -7 89 -35 165 -61 160 -55 208 -80 259 -136 113 -125 117 -314 9 -445 -54 -67 -107 -92 -349 -165 -38 -12 -90 -29 -115 -38 -25 -8 -63 -21 -85 -27 -22 -6 -56 -17 -75 -24 -19 -7 -60 -22 -90 -33 -30 -11 -75 -27 -100 -37 -25 -10 -72 -27 -105 -39 -33 -12 -79 -31 -102 -42 -24 -10 -62 -27 -85 -38 -187 -81 -265 -120 -438 -221 -130 -75 -301 -204 -395 -297 -66 -66 -154 -187 -191 -263 -60 -125 -69 -166 -68 -320 1 -127 4 -155 27 -225 30 -93 56 -147 111 -229 40 -59 141 -151 206 -187 19 -11 42 -23 50 -28 70 -44 181 -78 344 -108 133 -23 156 -25 396 -20 253 4 323 11 595 58 185 32 372 74 623 140 39 10 105 28 145 38 39 11 90 25 112 31 56 17 169 7 228 -20 119 -54 203 -188 200 -320 -2 -90 -32 -151 -145 -292 -244 -307 -390 -537 -507 -800 -65 -146 -92 -231 -131 -413 -5 -22 -9 -106 -10 -187 0 -129 3 -157 24 -220 38 -118 94 -206 172 -271 47 -39 157 -95 246 -124 80 -26 91 -27 288 -27 180 0 214 3 281 22 41 12 83 22 92 22 31 0 165 71 225 119 68 54 168 158 206 214 14 21 43 61 63 90 36 50 47 68 81 127 8 14 24 43 37 65 41 70 148 293 185 385 12 30 30 72 41 92 10 20 19 44 19 52 0 9 8 35 19 58 10 24 24 59 31 78 56 162 72 211 107 325 53 171 76 252 103 355 12 47 30 117 40 155 45 168 114 491 159 740 56 310 67 386 111 745 9 77 4 115 -34 240 -9 30 -25 84 -35 120 -11 36 -29 97 -40 135 -31 104 -56 191 -81 280 -13 44 -31 109 -42 145 -10 36 -28 95 -38 133 -56 192 -64 211 -124 287 -384 489 -1032 1154 -1486 1525 -47 38 -87 72 -90 75 -3 3 -23 19 -45 35 -22 16 -72 54 -110 85 -76 59 -100 77 -214 155 -91 62 -117 79 -161 105 -19 11 -48 29 -65 40 -56 36 -265 146 -315 165 -210 80 -310 106 -435 110 -55 2 -109 2 -120 -1z">
            </path>
            <path id="p122OKws7V"
                d="M16925 16485 c-22 -14 -56 -34 -75 -45 -19 -11 -47 -28 -62 -38 -15 -9 -91 -55 -168 -102 -77 -47 -157 -95 -178 -108 -20 -12 -46 -27 -57 -32 -11 -5 -38 -21 -60 -35 -22 -14 -53 -32 -70 -41 -16 -8 -48 -26 -70 -40 -22 -13 -53 -31 -70 -40 -16 -8 -48 -26 -70 -40 -22 -13 -53 -31 -70 -40 -16 -8 -48 -26 -70 -40 -22 -13 -53 -31 -70 -39 -16 -9 -66 -35 -110 -60 -44 -24 -100 -55 -125 -67 -25 -13 -75 -40 -112 -61 -280 -154 -378 -205 -698 -369 -181 -93 -229 -118 -280 -144 -166 -87 -992 -487 -1175 -569 -16 -8 -66 -30 -110 -51 -44 -20 -102 -47 -130 -59 -27 -13 -80 -37 -117 -54 -38 -17 -98 -45 -135 -62 -38 -17 -86 -39 -108 -49 -22 -10 -89 -39 -150 -65 -60 -26 -143 -62 -183 -81 -40 -19 -76 -34 -80 -34 -4 0 -70 -27 -147 -61 -77 -33 -162 -70 -190 -81 -27 -11 -68 -28 -90 -38 -22 -10 -51 -21 -65 -25 -14 -4 -29 -11 -35 -15 -5 -4 -28 -13 -50 -20 -22 -7 -44 -16 -50 -20 -5 -4 -28 -13 -50 -20 -22 -7 -49 -19 -60 -26 -11 -8 -26 -14 -34 -14 -7 0 -32 -8 -55 -19 -56 -25 -129 -55 -201 -81 -33 -13 -80 -31 -105 -40 -44 -18 -99 -39 -217 -82 -32 -11 -79 -29 -105 -39 -26 -11 -52 -19 -58 -19 -7 0 -26 -7 -43 -14 -18 -8 -122 -44 -232 -80 -312 -103 -405 -131 -680 -206 -44 -12 -110 -30 -146 -41 -36 -10 -73 -19 -83 -19 -10 0 -48 -8 -84 -19 -37 -10 -103 -27 -147 -36 -44 -10 -87 -22 -95 -26 -36 -18 -81 -456 -81 -792 -1 -194 16 -537 31 -662 5 -38 14 -110 20 -160 22 -175 79 -484 111 -600 10 -38 19 -79 19 -91 0 -11 8 -47 19 -80 10 -32 29 -95 41 -139 32 -111 69 -224 86 -262 8 -17 14 -36 14 -43 0 -6 9 -35 21 -63 11 -29 29 -72 39 -97 49 -123 116 -269 183 -400 63 -125 88 -171 152 -278 13 -22 136 -205 176 -262 186 -265 536 -591 774 -721 75 -41 217 -109 228 -109 7 0 21 -6 32 -13 53 -36 266 -91 455 -118 374 -55 813 14 1265 198 108 44 373 172 450 218 22 13 49 29 60 34 11 6 38 22 60 36 22 13 53 32 69 41 16 9 51 32 78 50 26 19 52 34 56 34 5 0 17 9 27 20 10 11 23 20 28 20 6 0 19 8 29 17 10 9 52 39 92 67 41 28 127 92 193 142 134 103 150 113 213 134 44 15 45 16 42 55 -1 22 -11 69 -21 105 -11 36 -22 82 -25 102 -6 35 -38 138 -98 321 -26 78 -41 96 -67 80 -9 -6 -32 -14 -51 -18 -86 -18 -251 -112 -359 -204 -55 -46 -166 -174 -186 -214 -13 -27 -51 -34 -73 -13 -10 8 -28 20 -42 26 -14 6 -42 21 -62 33 -20 12 -115 67 -210 121 -173 99 -218 130 -218 150 0 6 16 34 35 61 20 28 47 68 62 90 14 22 89 103 167 181 185 185 292 257 561 380 101 46 281 91 430 109 468 57 935 -78 1295 -373 86 -70 225 -217 283 -299 28 -41 62 -88 75 -104 40 -50 29 -64 -108 -145 -69 -40 -138 -80 -155 -88 -16 -9 -43 -24 -60 -35 -31 -19 -76 -45 -142 -82 -21 -11 -42 -25 -48 -30 -24 -23 -53 -8 -90 49 -38 57 -173 196 -232 240 -38 27 -63 28 -63 4 0 -10 8 -45 19 -78 44 -141 106 -448 132 -654 6 -47 13 -110 17 -140 l7 -55 100 -63 c55 -34 114 -69 130 -77 17 -9 48 -26 70 -39 40 -24 283 -146 340 -171 17 -7 56 -25 89 -39 32 -14 63 -26 70 -26 6 -1 29 -9 51 -20 22 -11 47 -19 55 -20 8 0 37 -9 65 -19 115 -45 332 -92 521 -115 403 -49 819 26 1159 210 28 15 59 32 70 38 74 40 241 162 332 244 171 153 365 366 452 496 14 21 33 49 41 61 63 93 112 170 144 225 20 36 48 83 61 105 34 56 147 287 180 365 14 36 32 79 40 95 7 17 22 53 33 80 18 47 32 84 80 218 102 283 210 738 253 1067 5 41 16 125 24 185 32 237 45 775 25 1060 -18 266 -80 632 -141 844 -11 35 -19 71 -19 80 0 9 -9 43 -20 76 -11 33 -38 116 -61 185 -40 124 -77 226 -105 287 -8 17 -14 35 -14 41 0 21 -169 378 -239 504 -14 27 -39 74 -56 105 -16 32 -48 85 -69 118 -22 33 -49 76 -62 95 -105 167 -234 345 -368 506 -185 223 -558 575 -758 714 -24 16 -62 43 -86 60 -23 16 -44 30 -47 30 -2 0 -30 18 -63 39 -99 66 -333 191 -356 191 -6 -1 -29 -12 -51 -25z">
            </path>
            <path id="pYLNsjzuL"
                d="M6360 13613 c0 -16 -9 -61 -20 -102 -11 -41 -20 -84 -20 -95 1 -45 -120 -572 -180 -786 -54 -195 -64 -230 -80 -280 -9 -30 -28 -89 -40 -130 -25 -81 -49 -150 -80 -233 -11 -29 -20 -57 -20 -62 -1 -6 -9 -28 -20 -50 -11 -22 -19 -46 -20 -52 0 -7 -9 -32 -19 -55 -11 -24 -31 -72 -46 -108 -60 -143 -192 -411 -250 -508 -157 -263 -339 -485 -512 -629 -55 -46 -88 -69 -198 -139 -93 -59 -269 -120 -470 -164 -188 -41 -617 -38 -772 5 -145 40 -252 78 -308 108 -11 6 -33 17 -50 25 -152 75 -350 252 -444 398 -54 84 -131 234 -131 255 0 6 -6 25 -14 42 -29 64 -57 205 -67 334 -12 150 1 383 26 473 8 30 15 65 15 77 0 13 9 51 20 85 11 35 29 92 41 128 34 109 94 252 166 394 60 121 60 138 -4 117 -21 -6 -94 -19 -163 -27 -69 -8 -161 -20 -205 -25 -66 -8 -515 -12 -725 -6 l-55 2 -3 -2024 c-1 -1488 1 -2027 9 -2037 10 -12 453 -14 2720 -14 l2709 0 10 26 c7 16 10 823 10 2264 0 2227 0 2238 -20 2263 -11 14 -31 29 -43 32 -31 9 -194 91 -247 126 -25 16 -52 32 -60 36 -54 28 -221 167 -308 257 -57 58 -110 106 -118 106 -9 0 -14 -10 -14 -27z">
            </path>
            <path id="pD1Ie5l6p"
                d="M8450 12948 c-30 -4 -173 -10 -318 -13 -144 -2 -267 -7 -272 -10 -7 -4 -10 -1251 -10 -3560 0 -3230 1 -3553 16 -3559 29 -11 3364 -7 3384 4 19 10 20 33 20 870 l0 860 -23 13 c-12 8 -49 22 -82 31 -637 183 -1191 597 -1637 1227 -86 122 -90 128 -203 324 -47 83 -90 157 -96 165 -5 8 -17 31 -25 50 -9 19 -41 87 -70 150 -103 216 -134 287 -134 303 0 6 -7 26 -16 42 -21 40 -33 73 -114 320 -39 115 -70 216 -70 224 0 8 -9 42 -19 75 -23 71 -51 183 -80 316 -12 52 -30 136 -41 186 -11 50 -20 102 -20 115 0 13 -9 74 -19 134 -42 234 -68 515 -87 945 -5 125 1 286 26 645 10 147 8 156 -35 153 -11 0 -45 -5 -75 -10z">
            </path>
            <path id="p16qz3wCms"
                d="M1722 7838 c-9 -9 -12 -249 -12 -1019 0 -909 2 -1007 16 -1013 9 -3 1232 -6 2719 -6 2241 0 2704 2 2714 13 15 18 15 1990 1 2018 -10 19 -65 19 -2718 19 -2093 0 -2711 -3 -2720 -12z">
            </path>
            <path id="pk6utQcSA"
                d="M2072 5108 c-8 -8 -5 -19 16 -44 15 -18 46 -59 70 -91 42 -57 118 -158 217 -288 28 -36 59 -79 70 -95 11 -15 67 -90 125 -166 58 -76 112 -148 120 -160 8 -12 89 -121 180 -241 91 -120 174 -230 185 -246 11 -15 133 -178 270 -361 206 -275 255 -335 279 -340 37 -8 5210 -8 5230 0 18 7 22 39 6 49 -5 3 -345 453 -755 1000 l-746 995 -2628 0 c-1982 0 -2630 -3 -2639 -12z">
            </path>
            <path id="pGbQYFG7o"
                d="M8210 5104 c0 -9 15 -34 33 -54 17 -21 59 -75 92 -119 33 -45 87 -117 120 -161 33 -44 87 -116 120 -160 33 -44 87 -116 120 -160 33 -43 87 -115 120 -160 33 -44 87 -116 120 -160 33 -43 86 -114 118 -157 32 -43 86 -115 120 -160 156 -207 184 -246 274 -365 60 -82 102 -128 113 -128 10 0 26 13 37 29 10 16 309 417 666 891 356 474 645 866 641 871 -3 5 -554 9 -1350 9 -1235 0 -1344 -1 -1344 -16z">
            </path>
            <path id="p1DPX38vgm"
                d="M3767 2383 c-11 -10 -8 -1341 2 -1347 15 -10 5424 -7 5433 2 10 10 11 1329 2 1343 -6 10 -5427 12 -5437 2z">
            </path>
            <path id="pLSAZ7H6Z"
                d="M15960 5771 c-160 -44 -202 -62 -325 -142 -87 -56 -185 -145 -185 -168 0 -23 122 -130 216 -188 21 -14 119 -62 176 -86 21 -9 89 -28 150 -43 260 -60 534 -6 779 152 37 24 95 71 130 104 l64 61 -68 64 c-135 126 -278 202 -472 250 -147 37 -320 35 -465 -4z">
            </path>
        </g>
    </g>
</svg>
