<svg width="27" height="27" viewBox="0 0 27 27" fill="none" xmlns="http://www.w3.org/2000/svg">
<g clip-path="url(#clip0_1_630)">
<path d="M20.1825 20.1825C18.2594 21.6484 15.9177 22.4605 13.5 22.5C5.625 22.5 1.125 13.5 1.125 13.5C2.52438 10.8921 4.46528 8.61368 6.8175 6.8175M11.1375 4.77C11.9119 4.58874 12.7047 4.49813 13.5 4.5C21.375 4.5 25.875 13.5 25.875 13.5C25.1921 14.7776 24.3777 15.9803 23.445 17.0887M15.885 15.885C15.576 16.2166 15.2034 16.4825 14.7894 16.667C14.3754 16.8515 13.9285 16.9507 13.4754 16.9587C13.0222 16.9667 12.5721 16.8833 12.1518 16.7136C11.7316 16.5438 11.3498 16.2912 11.0293 15.9707C10.7088 15.6502 10.4562 15.2684 10.2864 14.8482C10.1167 14.4279 10.0333 13.9778 10.0413 13.5246C10.0493 13.0715 10.1485 12.6246 10.333 12.2106C10.5174 11.7966 10.7834 11.424 11.115 11.115M1.125 1.125L25.875 25.875" stroke="white" stroke-width="4" stroke-linecap="round" stroke-linejoin="round"/>
</g>
<defs>
<clipPath id="clip0_1_630">
<rect width="27" height="27" fill="white"/>
</clipPath>
</defs>
</svg>
