<svg width="27" height="27" viewBox="0 0 27 27" fill="none" xmlns="http://www.w3.org/2000/svg">
<path d="M7.875 12.375V7.875C7.875 6.38316 8.46763 4.95242 9.52252 3.89752C10.5774 2.84263 12.0082 2.25 13.5 2.25C14.9918 2.25 16.4226 2.84263 17.4775 3.89752C18.5324 4.95242 19.125 6.38316 19.125 7.875V12.375M5.625 12.375H21.375C22.6176 12.375 23.625 13.3824 23.625 14.625V22.5C23.625 23.7426 22.6176 24.75 21.375 24.75H5.625C4.38236 24.75 3.375 23.7426 3.375 22.5V14.625C3.375 13.3824 4.38236 12.375 5.625 12.375Z" stroke="white" stroke-width="4" stroke-linecap="round" stroke-linejoin="round"/>
</svg>
