<svg width="27" height="27" viewBox="0 0 27 27" fill="none" xmlns="http://www.w3.org/2000/svg">
<g clip-path="url(#clip0_1_634)">
<path d="M24.75 19.035V22.41C24.7513 22.7233 24.6871 23.0334 24.5616 23.3205C24.4361 23.6076 24.252 23.8653 24.0211 24.0771C23.7902 24.2889 23.5176 24.4502 23.2208 24.5505C22.924 24.6509 22.6095 24.6882 22.2975 24.66C18.8357 24.2838 15.5104 23.1009 12.5887 21.2063C9.87056 19.479 7.566 17.1744 5.83875 14.4563C3.93747 11.5214 2.75427 8.17987 2.385 4.7025C2.35689 4.3914 2.39386 4.07786 2.49356 3.78183C2.59327 3.4858 2.75352 3.21378 2.96411 2.98308C3.17471 2.75237 3.43103 2.56805 3.71676 2.44184C4.0025 2.31563 4.31138 2.2503 4.62375 2.25H7.99875C8.54472 2.24463 9.07402 2.43797 9.48798 2.79398C9.90195 3.14999 10.1723 3.64438 10.2487 4.185C10.3912 5.26508 10.6554 6.32557 11.0362 7.34625C11.1876 7.74892 11.2204 8.18653 11.1306 8.60724C11.0409 9.02795 10.8325 9.41413 10.53 9.72L9.10125 11.1488C10.7027 13.9652 13.0348 16.2973 15.8512 17.8988L17.28 16.47C17.5859 16.1675 17.972 15.9591 18.3928 15.8694C18.8135 15.7796 19.2511 15.8124 19.6537 15.9638C20.6744 16.3446 21.7349 16.6088 22.815 16.7513C23.3615 16.8283 23.8606 17.1036 24.2173 17.5247C24.5741 17.9458 24.7637 18.4833 24.75 19.035Z" stroke="#B3B3B3" stroke-width="4" stroke-linecap="round" stroke-linejoin="round"/>
</g>
<defs>
<clipPath id="clip0_1_634">
<rect width="27" height="27" fill="white"/>
</clipPath>
</defs>
</svg>
