<svg width="23" height="30" viewBox="0 0 23 30" fill="none" xmlns="http://www.w3.org/2000/svg">
<path d="M22.2576 15.6063C20.0002 9.73994 11.9628 9.42362 13.9038 0.897274C14.0476 0.264628 13.3718 -0.224235 12.8255 0.106467C7.60613 3.18343 3.85339 9.35172 7.00224 17.4323C7.26105 18.0937 6.48462 18.712 5.92387 18.2807C3.32139 16.3108 3.0482 13.4783 3.27826 11.451C3.36453 10.7033 2.3868 10.3438 1.96983 10.9621C0.992104 12.4574 0 14.873 0 18.5107C0.546376 26.5626 7.34732 29.0356 9.79163 29.352C13.2856 29.7977 17.0671 29.1507 19.7846 26.6632C22.7753 23.8882 23.868 19.4597 22.2576 15.6063ZM8.91456 22.8386C10.985 22.3353 12.049 20.84 12.3366 19.5172C12.8111 17.4611 10.9563 15.4481 12.2072 12.1986C12.6817 14.8874 16.9089 16.5696 16.9089 19.5028C17.0239 23.1405 13.0843 26.2606 8.91456 22.8386Z" fill="white"/>
</svg>
