<svg width="27" height="27" viewBox="0 0 27 27" fill="none" xmlns="http://www.w3.org/2000/svg">
<path d="M5.625 23.625C5.00625 23.625 4.47656 23.4047 4.03594 22.9641C3.59531 22.5234 3.375 21.9937 3.375 21.375V5.625C3.375 5.00625 3.59531 4.47656 4.03594 4.03594C4.47656 3.59531 5.00625 3.375 5.625 3.375H21.375C21.9937 3.375 22.5234 3.59531 22.9641 4.03594C23.4047 4.47656 23.625 5.00625 23.625 5.625V21.375C23.625 21.9937 23.4047 22.5234 22.9641 22.9641C22.5234 23.4047 21.9937 23.625 21.375 23.625H5.625ZM5.625 21.375H21.375V5.625H5.625V21.375Z" fill="white"/>
</svg>
